<?xml version="1.0" encoding="utf-8"?>
<!-- Generator: Adobe Illustrator 16.0.0, SVG Export Plug-In . SVG Version: 6.00 Build 0)  -->
<!DOCTYPE svg PUBLIC "-//W3C//DTD SVG 1.1//EN" "http://www.w3.org/Graphics/SVG/1.1/DTD/svg11.dtd">
<svg version="1.1" id="Layer_1" xmlns="http://www.w3.org/2000/svg" xmlns:xlink="http://www.w3.org/1999/xlink" x="0px" y="0px"
	 width="432px" height="432px" viewBox="0 0 432 432" enable-background="new 0 0 432 432" xml:space="preserve">
<g>
	<g>
		
			<polyline fill="none" stroke="#FFFFFF" stroke-width="0.8" stroke-linecap="round" stroke-linejoin="round" stroke-miterlimit="10" points="
			226.455,45.987 227.535,45.987 240.887,61.729 217.193,46.683 216.962,46.604 217.35,46.525 218.352,46.525 218.661,46.45 
			219.663,46.45 219.973,46.372 220.05,46.372 221.054,46.372 221.285,46.296 221.594,46.296 222.365,46.296 222.596,46.217 
			223.215,46.217 223.754,46.217 223.754,46.142 224.758,46.142 225.143,46.063 226.301,46.063 226.455,45.987 		"/>
		
			<path fill-rule="evenodd" clip-rule="evenodd" fill="none" stroke="#FFFFFF" stroke-width="0.8" stroke-linecap="round" stroke-linejoin="round" stroke-miterlimit="10" d="
			M223.754,46.142l-0.539,0.075h0.539V46.142 M219.663,46.45h-1.312l-5.248,0.309h1.158l0.309-0.076h1.003h0.387l0.54-0.079h0.462
			l0.388-0.079h1.002V46.45h0.31H219.663 M211.483,46.837l-0.462,0.075h0.462V46.837"/>
		
			<path fill-rule="evenodd" clip-rule="evenodd" fill="none" stroke="#FFFFFF" stroke-width="0.8" stroke-linecap="round" stroke-linejoin="round" stroke-miterlimit="10" d="
			M218.661,46.45h-0.31v0.076L218.661,46.45 M215.96,46.683h-0.387l0.309,0.076L215.96,46.683 M339.203,134.658l1.158-4.785
			l-0.925,5.559l-0.077,0.229v0.233l-1.158,4.244v0.079l-0.076,0.23l-0.154,0.308l0.077-1.699l-1.004-2.237l1.157,1.928l0.617-2.083
			l0.311-1.079v-0.541l0.074-0.233V134.658 M320.683,187.292l-1.003,1.62l-0.076,0.154l-0.077,0.229l-4.015,8.183L320.683,187.292"
			/>
		
			<path fill-rule="evenodd" clip-rule="evenodd" fill="none" stroke="#FFFFFF" stroke-width="0.8" stroke-linecap="round" stroke-linejoin="round" stroke-miterlimit="10" d="
			M215.96,46.683l0.54-0.079v0.079h-0.385H215.96 M215.573,46.683h-1.003l-0.309,0.076h-1.158l-0.231,0.079H212.1h-0.617v0.075
			h-0.462h-0.85l-0.308,0.079l-2.007,0.154l-7.563,1.388l14.817-1.696h0.077l0.386-0.079h0.309L215.573,46.683 M199.444,48.687
			l2.239,0.154l-11.19,2.395L199.444,48.687 M346.537,149.088l1.466,0.079l0.154,0.154l2.161,3.319L346.537,149.088"/>
		
			<path fill-rule="evenodd" clip-rule="evenodd" fill="none" stroke="#FFFFFF" stroke-width="0.8" stroke-linecap="round" stroke-linejoin="round" stroke-miterlimit="10" d="
			M216.962,46.604H216.5v0.079h-0.385l-0.232,0.076h-0.309l-0.386,0.079h-0.077l-13.12,2.003l24.001,14.047l-8.799-16.205
			L216.962,46.604 M206.236,66.206l-19.062,0.771l-0.231,0.079l3.781,14.971L206.236,66.206"/>
		
			<path fill-rule="evenodd" clip-rule="evenodd" fill="none" stroke="#FFFFFF" stroke-width="0.8" stroke-linecap="round" stroke-linejoin="round" stroke-miterlimit="10" d="
			M215.96,46.683l-0.078,0.076l0.232-0.076H215.96 M200.293,48.533h-0.231l-0.231,0.078l-0.387,0.076l2.239,0.154h0.308l13.12-2.003
			L200.293,48.533 M178.839,68.83l-5.015,3.395l-0.31,0.158v0.075l-0.154,0.079l-10.109,5.323l8.952-5.477L178.839,68.83
			 M282.404,256.977l9.803-8.721l-7.641,7.334l-2.316,1.54L282.404,256.977"/>
		
			<polyline fill-rule="evenodd" clip-rule="evenodd" fill="none" stroke="#FFFFFF" stroke-width="0.8" stroke-linecap="round" stroke-linejoin="round" stroke-miterlimit="10" points="
			201.683,48.84 201.991,48.84 225.992,62.887 206.313,66.127 201.76,48.919 201.683,48.84 		"/>
		
			<path fill-rule="evenodd" clip-rule="evenodd" fill="none" stroke="#FFFFFF" stroke-width="0.8" stroke-linecap="round" stroke-linejoin="round" stroke-miterlimit="10" d="
			M201.76,48.919l-0.077-0.079l-11.19,2.395h-0.077l-0.233,0.075l-0.539,0.079l-0.078,0.233l-2.392,15.354L201.76,48.919
			 M212.1,261.687l4.939,0.229l7.796,13.816l0.077,0.151l-11.19-3.47L212.1,261.687"/>
		
			<path fill-rule="evenodd" clip-rule="evenodd" fill="none" stroke="#FFFFFF" stroke-width="0.8" stroke-linecap="round" stroke-linejoin="round" stroke-miterlimit="10" d="
			M240.887,61.729l-13.352-15.742l22.457,17.208l-8.721-1.233l-0.309-0.079L240.887,61.729 M368.299,145.307l-1.156-3.627
			l-1.775,8.799l1.002-1.774L368.299,145.307"/>
		
			<path fill-rule="evenodd" clip-rule="evenodd" fill="none" stroke="#FFFFFF" stroke-width="0.8" stroke-linecap="round" stroke-linejoin="round" stroke-miterlimit="10" d="
			M240.887,61.729l-23.693-15.047l8.799,16.205h0.078h0.307l14.586-1.003L240.887,61.729 M363.051,135.278l0.693-10.42
			l-4.705,10.728L363.051,135.278"/>
		
			<path fill-rule="evenodd" clip-rule="evenodd" fill="none" stroke="#FFFFFF" stroke-width="0.8" stroke-linecap="round" stroke-linejoin="round" stroke-miterlimit="10" d="
			M240.963,61.884l0.309,0.079l0.154,0.075h0.079l10.341,4.556l-25.469-3.706L240.963,61.884 M371,140.446l-0.54-1.699l-3.163,2.627
			l-0.154,0.305l1.156,3.627l0.154-0.462l2.547-4.09V140.446"/>
		
			<path fill-rule="evenodd" clip-rule="evenodd" fill="none" stroke="#FFFFFF" stroke-width="0.8" stroke-linecap="round" stroke-linejoin="round" stroke-miterlimit="10" d="
			M241.271,61.962l0.154,0.075h0.079l21.993,6.097l-13.506-4.939L241.271,61.962 M186.942,67.056l-7.409,1.387l-0.695,0.387
			l-5.015,3.395L186.942,67.056"/>
		
			<path fill-rule="evenodd" clip-rule="evenodd" fill="none" stroke="#FFFFFF" stroke-width="0.8" stroke-linecap="round" stroke-linejoin="round" stroke-miterlimit="10" d="
			M225.992,62.887h0.078l7.793,5.093l-27.55-1.853L225.992,62.887 M344.143,135.661h-4.783v0.233l1.697,8.642L344.143,135.661
			 M357.959,147.084l0.848-11.269l-5.402,11.96l-0.154,0.233l4.631-0.541L357.959,147.084"/>
		
			<path fill-rule="evenodd" clip-rule="evenodd" fill="none" stroke="#FFFFFF" stroke-width="0.8" stroke-linecap="round" stroke-linejoin="round" stroke-miterlimit="10" d="
			M226.07,62.887h0.307l25.469,3.706L252,66.669l-17.828,1.312h-0.309L226.07,62.887 M368.453,144.844l2.547-4.09l0.309,5.634
			l-3.01-1.082L368.453,144.844"/>
		
			<polyline fill-rule="evenodd" clip-rule="evenodd" fill="none" stroke="#FFFFFF" stroke-width="0.8" stroke-linecap="round" stroke-linejoin="round" stroke-miterlimit="10" points="
			201.76,48.919 206.313,66.127 206.236,66.206 187.174,66.977 201.76,48.919 		"/>
		
			<polyline fill-rule="evenodd" clip-rule="evenodd" fill="none" stroke="#FFFFFF" stroke-width="0.8" stroke-linecap="round" stroke-linejoin="round" stroke-miterlimit="10" points="
			206.236,66.206 206.313,66.127 233.863,67.98 212.641,82.644 212.487,82.644 206.236,66.206 		"/>
		
			<polyline fill-rule="evenodd" clip-rule="evenodd" fill="none" stroke="#FFFFFF" stroke-width="0.8" stroke-linecap="round" stroke-linejoin="round" stroke-miterlimit="10" points="
			251.846,66.593 241.505,62.038 263.498,68.134 263.652,68.213 252,66.669 251.846,66.593 		"/>
		
			<path fill-rule="evenodd" clip-rule="evenodd" fill="none" stroke="#FFFFFF" stroke-width="0.8" stroke-linecap="round" stroke-linejoin="round" stroke-miterlimit="10" d="
			M252,66.669l0.309,0.078l24.617,8.95l-12.965-7.409l-0.154-0.075h-0.154L252,66.669 M370.537,138.518l1.62-2.702L371,140.446
			l-0.54-1.699L370.537,138.518 M163.25,243.55l1.851,1.158l4.013,2.39l7.795,4.632l0.385,0.153l5.249-1.85L163.25,243.55"/>
		
			<path fill-rule="evenodd" clip-rule="evenodd" fill="none" stroke="#FFFFFF" stroke-width="0.8" stroke-linecap="round" stroke-linejoin="round" stroke-miterlimit="10" d="
			M252,66.669l0.309,0.078l11.498,7.484l-29.635-6.251L252,66.669 M370.537,132.421v-0.079l-3.627,3.01l-0.078,0.309l0.465,5.713
			l3.163-2.627l0.077-0.229l-0.231-3.01v-0.076L370.537,132.421 M371,140.754l2.702,0.542l-2.394,5.093L371,140.754
			 M219.588,260.219l-10.651,1.234l3.163,0.233l4.939,0.229l7.796,0.463l1.466-1.775l-3.781,1.236l-0.463-0.232L219.588,260.219"/>
		
			<path fill-rule="evenodd" clip-rule="evenodd" fill="none" stroke="#FFFFFF" stroke-width="0.8" stroke-linecap="round" stroke-linejoin="round" stroke-miterlimit="10" d="
			M187.174,66.977l2.392-15.354l-10.032,16.821l7.409-1.387L187.174,66.977 M368.838,128.64l-0.075,0.075l-1.853,6.638l3.627-3.01
			L368.838,128.64"/>
		
			<polyline fill-rule="evenodd" clip-rule="evenodd" fill="none" stroke="#FFFFFF" stroke-width="0.8" stroke-linecap="round" stroke-linejoin="round" stroke-miterlimit="10" points="
			233.863,67.98 234.172,67.98 263.807,74.231 240.81,85.884 240.576,85.884 233.863,67.98 		"/>
		
			<polyline fill-rule="evenodd" clip-rule="evenodd" fill="none" stroke="#FFFFFF" stroke-width="0.8" stroke-linecap="round" stroke-linejoin="round" stroke-miterlimit="10" points="
			186.942,67.056 173.824,72.224 173.514,72.382 190.724,82.027 186.942,67.056 		"/>
		
			<path fill-rule="evenodd" clip-rule="evenodd" fill="none" stroke="#FFFFFF" stroke-width="0.8" stroke-linecap="round" stroke-linejoin="round" stroke-miterlimit="10" d="
			M173.514,72.382v0.075l-1.852,18.831h0.076l18.908-9.186l0.077-0.076L173.514,72.382 M294.369,238.686l-14.047-9.72l6.25,21.222
			l7.718-11.348L294.369,238.686"/>
		
			<polyline fill-rule="evenodd" clip-rule="evenodd" fill="none" stroke="#FFFFFF" stroke-width="0.8" stroke-linecap="round" stroke-linejoin="round" stroke-miterlimit="10" points="
			173.514,72.457 173.36,72.536 159.005,85.346 171.663,91.288 173.514,72.457 		"/>
		
			<polyline fill-rule="evenodd" clip-rule="evenodd" fill="none" stroke="#FFFFFF" stroke-width="0.8" stroke-linecap="round" stroke-linejoin="round" stroke-miterlimit="10" points="
			263.807,74.231 252.309,66.747 276.926,75.697 277.003,75.776 263.807,74.231 		"/>
		
			<polyline fill-rule="evenodd" clip-rule="evenodd" fill="none" stroke="#FFFFFF" stroke-width="0.8" stroke-linecap="round" stroke-linejoin="round" stroke-miterlimit="10" points="
			263.807,74.231 263.961,74.31 288.965,85.5 277.003,75.776 263.807,74.231 		"/>
		
			<polyline fill-rule="evenodd" clip-rule="evenodd" fill="none" stroke="#FFFFFF" stroke-width="0.8" stroke-linecap="round" stroke-linejoin="round" stroke-miterlimit="10" points="
			263.807,74.231 263.961,74.31 268.591,91.75 252.309,86.812 252.153,86.733 240.81,85.884 263.807,74.231 		"/>
		
			<path fill-rule="evenodd" clip-rule="evenodd" fill="none" stroke="#FFFFFF" stroke-width="0.8" stroke-linecap="round" stroke-linejoin="round" stroke-miterlimit="10" d="
			M173.36,72.536l-10.109,5.323l-0.849,0.541l-3.396,6.946L173.36,72.536 M303.164,234.984l-8.795,3.701l-0.079,0.154l-0.85,8.258
			L303.164,234.984"/>
		
			<path fill-rule="evenodd" clip-rule="evenodd" fill="none" stroke="#FFFFFF" stroke-width="0.8" stroke-linecap="round" stroke-linejoin="round" stroke-miterlimit="10" d="
			M162.401,78.399l-1.004,0.85l-11.112,9.954l8.72-3.857L162.401,78.399 M168.498,240.926l-21.376-10.11l15.665,12.502l0.156,0.153
			L168.498,240.926"/>
		
			<polyline fill-rule="evenodd" clip-rule="evenodd" fill="none" stroke="#FFFFFF" stroke-width="0.8" stroke-linecap="round" stroke-linejoin="round" stroke-miterlimit="10" points="
			190.724,82.027 206.236,66.206 212.487,82.644 190.724,82.027 		"/>
		
			<path fill-rule="evenodd" clip-rule="evenodd" fill="none" stroke="#FFFFFF" stroke-width="0.8" stroke-linecap="round" stroke-linejoin="round" stroke-miterlimit="10" d="
			M190.724,82.027l-0.077,0.076l-7.254,9.186l29.095-8.645L190.724,82.027 M284.874,96.765l14.201,0.695h0.387l0.153,0.079
			l0.154,0.154l0.309,0.384l8.102,12.964L284.874,96.765"/>
		
			<polyline fill-rule="evenodd" clip-rule="evenodd" fill="none" stroke="#FFFFFF" stroke-width="0.8" stroke-linecap="round" stroke-linejoin="round" stroke-miterlimit="10" points="
			212.641,82.644 233.863,67.98 240.576,85.884 212.641,82.644 		"/>
		
			<polyline fill-rule="evenodd" clip-rule="evenodd" fill="none" stroke="#FFFFFF" stroke-width="0.8" stroke-linecap="round" stroke-linejoin="round" stroke-miterlimit="10" points="
			212.487,82.644 212.641,82.644 210.095,93.292 206.39,93.063 206.236,92.984 205.387,92.984 205.154,92.908 204.383,92.908 
			204.075,92.83 203.38,92.83 202.994,92.754 202.3,92.754 201.991,92.675 201.297,92.675 200.91,92.6 200.293,92.6 199.831,92.521 
			199.29,92.521 198.75,92.446 198.286,92.446 197.746,92.368 197.283,92.368 196.667,92.292 196.204,92.292 195.586,92.213 
			195.2,92.213 194.505,92.138 194.197,92.138 193.425,92.059 193.193,92.059 192.423,91.98 192.19,91.98 191.186,91.905 
			190.183,91.826 189.104,91.75 188.177,91.672 188.1,91.672 185.168,91.443 185.091,91.443 184.473,91.364 184.087,91.364 
			183.777,91.288 183.393,91.288 212.487,82.644 		"/>
		
			<polyline fill-rule="evenodd" clip-rule="evenodd" fill="none" stroke="#FFFFFF" stroke-width="0.8" stroke-linecap="round" stroke-linejoin="round" stroke-miterlimit="10" points="
			263.961,74.31 288.965,85.5 289.043,85.5 289.197,85.654 270.752,92.368 268.591,91.75 263.961,74.31 		"/>
		
			<polyline fill-rule="evenodd" clip-rule="evenodd" fill="none" stroke="#FFFFFF" stroke-width="0.8" stroke-linecap="round" stroke-linejoin="round" stroke-miterlimit="10" points="
			240.576,85.884 212.641,82.644 210.095,93.292 210.326,93.292 240.191,86.038 240.269,86.038 240.423,85.962 240.576,85.884 		"/>
		
			<polyline fill-rule="evenodd" clip-rule="evenodd" fill="none" stroke="#FFFFFF" stroke-width="0.8" stroke-linecap="round" stroke-linejoin="round" stroke-miterlimit="10" points="
			289.197,85.654 289.43,85.884 289.967,86.425 290.277,86.812 290.586,87.12 299.462,97.46 299.075,97.46 276.541,94.142 
			270.752,92.368 289.197,85.654 		"/>
		
			<polyline fill-rule="evenodd" clip-rule="evenodd" fill="none" stroke="#FFFFFF" stroke-width="0.8" stroke-linecap="round" stroke-linejoin="round" stroke-miterlimit="10" points="
			240.576,85.884 240.81,85.884 252.153,86.733 223.522,92.908 240.191,86.038 240.269,86.038 240.423,85.962 240.576,85.884 		"/>
		
			<polyline fill-rule="evenodd" clip-rule="evenodd" fill="none" stroke="#FFFFFF" stroke-width="0.8" stroke-linecap="round" stroke-linejoin="round" stroke-miterlimit="10" points="
			289.43,85.884 289.967,86.425 290.277,86.812 290.586,87.12 299.462,97.46 299.615,97.539 299.77,97.693 304.168,101.088 
			304.555,101.396 294.523,90.052 289.43,85.884 		"/>
		
			<polyline fill-rule="evenodd" clip-rule="evenodd" fill="none" stroke="#FFFFFF" stroke-width="0.8" stroke-linecap="round" stroke-linejoin="round" stroke-miterlimit="10" points="
			252.153,86.733 252.309,86.812 260.643,99.854 223.136,92.984 223.522,92.908 252.153,86.733 		"/>
		
			<polyline fill-rule="evenodd" clip-rule="evenodd" fill="none" stroke="#FFFFFF" stroke-width="0.8" stroke-linecap="round" stroke-linejoin="round" stroke-miterlimit="10" points="
			116.715,88.973 116.869,88.894 158.774,102.787 149.668,108.109 149.437,108.109 116.715,88.973 		"/>
		
			<path fill-rule="evenodd" clip-rule="evenodd" fill="none" stroke="#FFFFFF" stroke-width="0.8" stroke-linecap="round" stroke-linejoin="round" stroke-miterlimit="10" d="
			M150.285,89.203l11.112-9.954l-6.328,4.939l-5.479,5.323L150.285,89.203 M183.393,91.288h-0.462l-12.887,1.466l15.434-1.236
			l-0.309-0.075h-0.077l-0.619-0.079h-0.385l-0.31-0.076H183.393"/>
		
			<polyline fill-rule="evenodd" clip-rule="evenodd" fill="none" stroke="#FFFFFF" stroke-width="0.8" stroke-linecap="round" stroke-linejoin="round" stroke-miterlimit="10" points="
			150.285,89.203 159.005,85.346 171.663,91.288 171.509,91.288 160.936,92.446 145.964,91.21 149.591,89.511 150.285,89.203 		"/>
		
			<path fill-rule="evenodd" clip-rule="evenodd" fill="none" stroke="#FFFFFF" stroke-width="0.8" stroke-linecap="round" stroke-linejoin="round" stroke-miterlimit="10" d="
			M145.964,91.21l-29.095-2.316l41.905,13.893l0.309-0.154l8.643-9.649l-6.79-0.538L145.964,91.21 M123.507,188.45l6.482,3.47
			l0.154,1.469l-10.573-1.158L123.507,188.45 M155.609,229.35l-5.709-5.48l-2.932,6.871l8.72-1.236L155.609,229.35"/>
		
			<path fill-rule="evenodd" clip-rule="evenodd" fill="none" stroke="#FFFFFF" stroke-width="0.8" stroke-linecap="round" stroke-linejoin="round" stroke-miterlimit="10" d="
			M183.393,91.288l7.254-9.186l-18.908,9.186h11.192H183.393 M266.74,244.861l-4.014-9.262l12.656,18.445L266.74,244.861"/>
		
			<polyline fill-rule="evenodd" clip-rule="evenodd" fill="none" stroke="#FFFFFF" stroke-width="0.8" stroke-linecap="round" stroke-linejoin="round" stroke-miterlimit="10" points="
			171.663,91.288 171.509,91.288 167.957,92.908 168.575,92.908 168.962,92.83 169.348,92.83 169.887,92.754 170.043,92.754 
			182.93,91.288 171.738,91.288 171.663,91.288 		"/>
		
			<polyline fill-rule="evenodd" clip-rule="evenodd" fill="none" stroke="#FFFFFF" stroke-width="0.8" stroke-linecap="round" stroke-linejoin="round" stroke-miterlimit="10" points="
			185.168,91.443 185.477,91.518 185.708,91.597 188.1,91.672 185.168,91.443 		"/>
		
			<path fill-rule="evenodd" clip-rule="evenodd" fill="none" stroke="#FFFFFF" stroke-width="0.8" stroke-linecap="round" stroke-linejoin="round" stroke-miterlimit="10" d="
			M185.477,91.518l0.231,0.079l-26.625,11.036l8.643-9.649l0.156-0.076h0.076h0.618l0.387-0.078h0.386l0.539-0.076h0.156
			L185.477,91.518 M188.641,107.647l-29.867-4.86l-9.106,5.323L188.641,107.647 M146.889,237.066l1.004,1.158l5.403,6.021
			l9.647-0.774l-0.156-0.153L146.889,237.066"/>
		
			<path fill-rule="evenodd" clip-rule="evenodd" fill="none" stroke="#FFFFFF" stroke-width="0.8" stroke-linecap="round" stroke-linejoin="round" stroke-miterlimit="10" d="
			M185.708,91.597l2.393,0.076h0.077l0.926,0.078l1.079,0.076l1.003,0.079l1.004,0.075h0.233l0.771,0.079h0.231l0.772,0.079h0.308
			l0.695,0.075h0.386l0.618,0.079h0.462l0.617,0.076h0.462l0.541,0.078h0.464l0.54,0.076h0.541l0.462,0.079h0.617l0.387,0.075h0.693
			l0.31,0.079h0.694l0.386,0.076h0.695l0.308,0.078h0.771l0.232,0.076h0.85l0.154,0.079l3.705,0.229l-20.606,14.125l-0.54,0.229
			L185.708,91.597 M126.903,134.966v0.079l0.229,0.541l8.953,17.979l24.618-11.573L126.903,134.966"/>
		
			<polyline fill-rule="evenodd" clip-rule="evenodd" fill="none" stroke="#FFFFFF" stroke-width="0.8" stroke-linecap="round" stroke-linejoin="round" stroke-miterlimit="10" points="
			268.591,91.75 252.309,86.812 260.643,99.854 260.874,99.854 284.874,96.765 276.541,94.142 270.752,92.368 268.591,91.75 		"/>
		
			<polyline fill-rule="evenodd" clip-rule="evenodd" fill="none" stroke="#FFFFFF" stroke-width="0.8" stroke-linecap="round" stroke-linejoin="round" stroke-miterlimit="10" points="
			160.936,92.446 171.509,91.288 167.957,92.908 167.881,92.908 167.726,92.984 160.936,92.446 		"/>
		
			<polyline fill-rule="evenodd" clip-rule="evenodd" fill="none" stroke="#FFFFFF" stroke-width="0.8" stroke-linecap="round" stroke-linejoin="round" stroke-miterlimit="10" points="
			223.522,92.908 240.191,86.038 210.326,93.292 223.136,92.984 223.522,92.908 		"/>
		
			<polyline fill-rule="evenodd" clip-rule="evenodd" fill="none" stroke="#FFFFFF" stroke-width="0.8" stroke-linecap="round" stroke-linejoin="round" stroke-miterlimit="10" points="
			223.136,92.984 223.136,93.063 212.023,113.281 260.643,99.93 260.643,99.854 223.136,92.984 		"/>
		
			<path fill-rule="evenodd" clip-rule="evenodd" fill="none" stroke="#FFFFFF" stroke-width="0.8" stroke-linecap="round" stroke-linejoin="round" stroke-miterlimit="10" d="
			M223.136,92.984v0.079l-33.647,14.354l20.606-14.125h0.231L223.136,92.984 M120.728,174.866l13.428-19.216l-5.016,29.093
			L120.728,174.866"/>
		
			<path fill-rule="evenodd" clip-rule="evenodd" fill="none" stroke="#FFFFFF" stroke-width="0.8" stroke-linecap="round" stroke-linejoin="round" stroke-miterlimit="10" d="
			M276.541,94.142l8.333,2.624l14.201,0.695L276.541,94.142 M299.77,97.693l0.309,0.384l8.102,12.964l0.078,0.158l4.631,3.319
			l0.154,0.075l-0.154-0.154l-8.334-13.043l-0.387-0.308L299.77,97.693"/>
		
			<polyline fill-rule="evenodd" clip-rule="evenodd" fill="none" stroke="#FFFFFF" stroke-width="0.8" stroke-linecap="round" stroke-linejoin="round" stroke-miterlimit="10" points="
			260.643,99.854 260.874,99.854 293.132,111.041 253.543,114.518 253.311,114.518 260.643,99.93 260.643,99.854 		"/>
		
			<polyline fill-rule="evenodd" clip-rule="evenodd" fill="none" stroke="#FFFFFF" stroke-width="0.8" stroke-linecap="round" stroke-linejoin="round" stroke-miterlimit="10" points="
			284.874,96.765 260.874,99.854 293.132,111.041 284.874,96.765 		"/>
		
			<path fill-rule="evenodd" clip-rule="evenodd" fill="none" stroke="#FFFFFF" stroke-width="0.8" stroke-linecap="round" stroke-linejoin="round" stroke-miterlimit="10" d="
			M159.083,102.633l26.625-11.036l3.242,16.05h-0.308l-29.867-4.86L159.083,102.633 M166.262,150.17l-5.48-8.104l-5.247,23.308
			l10.728-15.128V150.17"/>
		
			<polyline fill-rule="evenodd" clip-rule="evenodd" fill="none" stroke="#FFFFFF" stroke-width="0.8" stroke-linecap="round" stroke-linejoin="round" stroke-miterlimit="10" points="
			189.489,107.417 223.136,93.063 212.023,113.281 189.104,107.726 188.949,107.647 189.489,107.417 		"/>
		
			<polyline fill-rule="evenodd" clip-rule="evenodd" fill="none" stroke="#FFFFFF" stroke-width="0.8" stroke-linecap="round" stroke-linejoin="round" stroke-miterlimit="10" points="
			188.641,107.647 188.949,107.647 189.104,107.726 192.19,120.148 191.958,120.148 149.668,108.109 188.641,107.647 		"/>
		
			<polyline fill-rule="evenodd" clip-rule="evenodd" fill="none" stroke="#FFFFFF" stroke-width="0.8" stroke-linecap="round" stroke-linejoin="round" stroke-miterlimit="10" points="
			149.437,108.109 116.715,88.973 108.072,119.687 149.437,108.109 		"/>
		
			<polyline fill-rule="evenodd" clip-rule="evenodd" fill="none" stroke="#FFFFFF" stroke-width="0.8" stroke-linecap="round" stroke-linejoin="round" stroke-miterlimit="10" points="
			149.437,108.109 149.668,108.109 191.958,120.148 150.903,123.238 150.595,123.238 149.437,108.109 		"/>
		
			<polyline fill-rule="evenodd" clip-rule="evenodd" fill="none" stroke="#FFFFFF" stroke-width="0.8" stroke-linecap="round" stroke-linejoin="round" stroke-miterlimit="10" points="
			293.132,111.041 284.874,96.765 308.18,111.041 308.258,111.199 293.287,111.12 293.132,111.041 		"/>
		
			<polyline fill-rule="evenodd" clip-rule="evenodd" fill="none" stroke="#FFFFFF" stroke-width="0.8" stroke-linecap="round" stroke-linejoin="round" stroke-miterlimit="10" points="
			293.132,111.041 293.287,111.12 296.297,124.238 253.543,114.518 293.132,111.041 		"/>
		
			<polyline fill-rule="evenodd" clip-rule="evenodd" fill="none" stroke="#FFFFFF" stroke-width="0.8" stroke-linecap="round" stroke-linejoin="round" stroke-miterlimit="10" points="
			293.287,111.12 308.258,111.199 308.49,111.583 314.664,126.17 293.287,111.12 		"/>
		
			<polyline fill-rule="evenodd" clip-rule="evenodd" fill="none" stroke="#FFFFFF" stroke-width="0.8" stroke-linecap="round" stroke-linejoin="round" stroke-miterlimit="10" points="
			308.258,111.199 308.49,111.583 314.664,126.17 314.741,126.246 318.523,127.712 318.754,127.79 313.043,114.593 312.889,114.518 
			308.258,111.199 		"/>
		
			<polyline fill-rule="evenodd" clip-rule="evenodd" fill="none" stroke="#FFFFFF" stroke-width="0.8" stroke-linecap="round" stroke-linejoin="round" stroke-miterlimit="10" points="
			189.104,107.726 212.023,113.281 212.023,113.36 192.19,120.148 189.104,107.726 		"/>
		
			<polyline fill-rule="evenodd" clip-rule="evenodd" fill="none" stroke="#FFFFFF" stroke-width="0.8" stroke-linecap="round" stroke-linejoin="round" stroke-miterlimit="10" points="
			212.023,113.281 260.643,99.93 253.311,114.518 253.157,114.518 212.254,113.36 212.023,113.36 212.023,113.281 		"/>
		
			<polyline fill-rule="evenodd" clip-rule="evenodd" fill="none" stroke="#FFFFFF" stroke-width="0.8" stroke-linecap="round" stroke-linejoin="round" stroke-miterlimit="10" points="
			212.023,113.36 212.254,113.36 236.025,123.005 185.708,134.583 212.023,113.36 		"/>
		
			<polyline fill-rule="evenodd" clip-rule="evenodd" fill="none" stroke="#FFFFFF" stroke-width="0.8" stroke-linecap="round" stroke-linejoin="round" stroke-miterlimit="10" points="
			212.254,113.36 253.157,114.518 236.179,123.005 236.025,123.005 212.254,113.36 		"/>
		
			<path fill-rule="evenodd" clip-rule="evenodd" fill="none" stroke="#FFFFFF" stroke-width="0.8" stroke-linecap="round" stroke-linejoin="round" stroke-miterlimit="10" d="
			M253.311,114.518h-0.153l-11.344,24.076h0.308l31.562-7.717L253.311,114.518 M262.417,235.138l-24.927-3.706l3.859,24.08
			l0.23-0.077L262.417,235.138"/>
		
			<polyline fill-rule="evenodd" clip-rule="evenodd" fill="none" stroke="#FFFFFF" stroke-width="0.8" stroke-linecap="round" stroke-linejoin="round" stroke-miterlimit="10" points="
			253.311,114.518 253.543,114.518 296.297,124.238 273.684,130.876 253.311,114.518 		"/>
		
			<path fill-rule="evenodd" clip-rule="evenodd" fill="none" stroke="#FFFFFF" stroke-width="0.8" stroke-linecap="round" stroke-linejoin="round" stroke-miterlimit="10" d="
			M353.867,116.521l0.154-0.154l0.232-0.229h0.541l5.863,0.849l-11.498,4.166l4.014-3.936L353.867,116.521 M286.496,250.263
			l-0.154,0.233l-8.797,8.874l-0.155,0.076l-0.308,0.153l-7.025,2.857v-0.078l5.635-7.871h0.154L286.496,250.263"/>
		
			<polyline fill-rule="evenodd" clip-rule="evenodd" fill="none" stroke="#FFFFFF" stroke-width="0.8" stroke-linecap="round" stroke-linejoin="round" stroke-miterlimit="10" points="
			353.867,116.521 353.174,117.217 345.919,123.393 345.61,123.622 348.619,120.148 350.008,119.07 350.086,118.991 350.24,118.916 
			353.867,116.521 		"/>
		
			<path fill-rule="evenodd" clip-rule="evenodd" fill="none" stroke="#FFFFFF" stroke-width="0.8" stroke-linecap="round" stroke-linejoin="round" stroke-miterlimit="10" d="
			M108.072,119.687l41.365-11.577l1.158,15.128L108.072,119.687 M261.569,223.178l0.077,0.075l0.771,11.885l-24.927-3.706
			l-0.076-0.076L261.569,223.178"/>
		
			<polyline fill-rule="evenodd" clip-rule="evenodd" fill="none" stroke="#FFFFFF" stroke-width="0.8" stroke-linecap="round" stroke-linejoin="round" stroke-miterlimit="10" points="
			108.072,119.687 108.072,119.765 126.903,134.966 150.595,123.238 108.072,119.687 		"/>
		
			<path fill-rule="evenodd" clip-rule="evenodd" fill="none" stroke="#FFFFFF" stroke-width="0.8" stroke-linecap="round" stroke-linejoin="round" stroke-miterlimit="10" d="
			M360.658,116.987l5.943,2.778l0.23,0.229l3.166,4.63l-6.099-0.229l2.702-4.63l-8.489,3.935h-0.153l-8.799-2.548L360.658,116.987
			 M359.734,153.181l-1.854-5.713l-4.092,6.562L359.734,153.181"/>
		
			<polyline fill-rule="evenodd" clip-rule="evenodd" fill="none" stroke="#FFFFFF" stroke-width="0.8" stroke-linecap="round" stroke-linejoin="round" stroke-miterlimit="10" points="
			348.619,120.148 350.008,119.07 345.61,121.615 348.619,120.148 		"/>
		
			<polyline fill-rule="evenodd" clip-rule="evenodd" fill="none" stroke="#FFFFFF" stroke-width="0.8" stroke-linecap="round" stroke-linejoin="round" stroke-miterlimit="10" points="
			191.958,120.148 192.19,120.148 185.708,134.583 185.63,134.736 160.704,141.991 150.595,123.238 150.903,123.238 
			191.958,120.148 		"/>
		
			<polyline fill-rule="evenodd" clip-rule="evenodd" fill="none" stroke="#FFFFFF" stroke-width="0.8" stroke-linecap="round" stroke-linejoin="round" stroke-miterlimit="10" points="
			192.19,120.148 212.023,113.36 185.708,134.583 192.19,120.148 		"/>
		
			<polyline fill-rule="evenodd" clip-rule="evenodd" fill="none" stroke="#FFFFFF" stroke-width="0.8" stroke-linecap="round" stroke-linejoin="round" stroke-miterlimit="10" points="
			349.16,121.152 353.174,117.217 345.919,123.393 349.16,121.152 		"/>
		
			<polyline fill-rule="evenodd" clip-rule="evenodd" fill="none" stroke="#FFFFFF" stroke-width="0.8" stroke-linecap="round" stroke-linejoin="round" stroke-miterlimit="10" points="
			349.16,121.152 349.16,121.231 349.932,135.661 357.959,123.7 349.16,121.152 		"/>
		
			<path fill-rule="evenodd" clip-rule="evenodd" fill="none" stroke="#FFFFFF" stroke-width="0.8" stroke-linecap="round" stroke-linejoin="round" stroke-miterlimit="10" d="
			M349.16,121.152v0.079l-4.938,13.889l1.003-11.036l0.076-0.154l0.31-0.308l0.309-0.229L349.16,121.152 M226.301,260.604
			l1.62-0.537l14.277,14.351l-16.128-11.11l-0.078-0.078l-0.232-0.155l-0.925-0.694L226.301,260.604"/>
		
			<path fill-rule="evenodd" clip-rule="evenodd" fill="none" stroke="#FFFFFF" stroke-width="0.8" stroke-linecap="round" stroke-linejoin="round" stroke-miterlimit="10" d="
			M348.619,120.148l-3.009,1.466l-1.312,0.695l-0.85,1.003l-0.309,0.387l-0.076,0.076l-1.699,2.161L348.619,120.148 M340.98,126.554
			l-1.004,2.086l-0.54,1.312h0.077v0.076l-0.311,4.631l1.158-4.785v-0.076l0.078-0.308l0.078-0.387L340.98,126.554 M373.006,129.873
			v-0.076l0.771,0.229l-1.387,4.631L373.006,129.873 M276,260.448l1.082-0.849l-7.025,2.857l-6.559,5.326l3.627-1.466l0.077-0.078
			l0.077-0.077h0.154l8.334-5.559l0.078-0.074L276,260.448 M212.564,260.529l-19.294-2.47l11.268,2.544l4.399,0.85L212.564,260.529"
			/>
		
			<polyline fill-rule="evenodd" clip-rule="evenodd" fill="none" stroke="#FFFFFF" stroke-width="0.8" stroke-linecap="round" stroke-linejoin="round" stroke-miterlimit="10" points="
			236.179,123.005 253.157,114.518 241.813,138.593 236.179,123.005 		"/>
		
			<polyline fill-rule="evenodd" clip-rule="evenodd" fill="none" stroke="#FFFFFF" stroke-width="0.8" stroke-linecap="round" stroke-linejoin="round" stroke-miterlimit="10" points="
			236.025,123.005 236.179,123.005 241.813,138.593 241.813,138.672 241.58,138.747 200.833,151.791 236.025,123.005 		"/>
		
			<polyline fill-rule="evenodd" clip-rule="evenodd" fill="none" stroke="#FFFFFF" stroke-width="0.8" stroke-linecap="round" stroke-linejoin="round" stroke-miterlimit="10" points="
			348.619,120.148 345.61,123.622 345.301,123.93 341.211,126.091 341.365,125.937 348.619,120.148 		"/>
		
			<path fill-rule="evenodd" clip-rule="evenodd" fill="none" stroke="#FFFFFF" stroke-width="0.8" stroke-linecap="round" stroke-linejoin="round" stroke-miterlimit="10" d="
			M358.112,123.7l8.489-3.935l-2.702,4.63L358.112,123.7 M363.824,146.851v0.079l-4.015,6.25h-0.075l-1.854-5.713L363.824,146.851"
			/>
		
			<path fill-rule="evenodd" clip-rule="evenodd" fill="none" stroke="#FFFFFF" stroke-width="0.8" stroke-linecap="round" stroke-linejoin="round" stroke-miterlimit="10" d="
			M357.959,123.7h0.153l5.787,0.695l-0.155,0.462l-4.705,10.728h-0.154L357.959,123.7 M344.143,135.661l5.713,0.233v0.154
			l-4.014,10.419L344.143,135.661 M261.028,251.111l5.712-6.25l3.316,17.518l-9.028-11.033V251.111"/>
		
			<path fill-rule="evenodd" clip-rule="evenodd" fill="none" stroke="#FFFFFF" stroke-width="0.8" stroke-linecap="round" stroke-linejoin="round" stroke-miterlimit="10" d="
			M345.301,123.93l-0.076,0.154l-5.788,11.347l0.925-5.559v-0.076l0.078-0.308l0.078-0.387l0.463-2.548l0.23-0.462L345.301,123.93
			 M353.25,148.009l-5.247,1.158l0.154,0.154l5.479,4.63l0.153,0.079L353.25,148.009"/>
		
			<polyline fill-rule="evenodd" clip-rule="evenodd" fill="none" stroke="#FFFFFF" stroke-width="0.8" stroke-linecap="round" stroke-linejoin="round" stroke-miterlimit="10" points="
			296.297,124.238 293.287,111.12 314.664,126.17 296.297,124.238 		"/>
		
			<polyline fill-rule="evenodd" clip-rule="evenodd" fill="none" stroke="#FFFFFF" stroke-width="0.8" stroke-linecap="round" stroke-linejoin="round" stroke-miterlimit="10" points="
			296.297,124.238 296.374,124.317 311.346,139.597 314.741,126.246 314.664,126.17 296.297,124.238 		"/>
		
			<polyline fill-rule="evenodd" clip-rule="evenodd" fill="none" stroke="#FFFFFF" stroke-width="0.8" stroke-linecap="round" stroke-linejoin="round" stroke-miterlimit="10" points="
			296.297,124.238 296.374,124.317 306.021,138.055 305.788,138.055 273.684,130.876 296.297,124.238 		"/>
		
			<polyline fill-rule="evenodd" clip-rule="evenodd" fill="none" stroke="#FFFFFF" stroke-width="0.8" stroke-linecap="round" stroke-linejoin="round" stroke-miterlimit="10" points="
			369.998,124.625 366.832,119.995 371.309,124.78 369.998,124.625 		"/>
		
			<polyline fill-rule="evenodd" clip-rule="evenodd" fill="none" stroke="#FFFFFF" stroke-width="0.8" stroke-linecap="round" stroke-linejoin="round" stroke-miterlimit="10" points="
			363.899,124.396 369.998,124.625 368.838,128.64 363.899,124.396 		"/>
		
			<polyline fill-rule="evenodd" clip-rule="evenodd" fill="none" stroke="#FFFFFF" stroke-width="0.8" stroke-linecap="round" stroke-linejoin="round" stroke-miterlimit="10" points="
			369.998,124.625 371.309,124.78 373.702,129.719 373.777,130.027 373.006,129.797 370.46,125.245 369.998,124.625 		"/>
		
			<polyline fill-rule="evenodd" clip-rule="evenodd" fill="none" stroke="#FFFFFF" stroke-width="0.8" stroke-linecap="round" stroke-linejoin="round" stroke-miterlimit="10" points="
			363.899,124.396 363.744,124.858 363.051,135.278 363.205,135.278 368.763,128.715 368.838,128.64 363.899,124.396 		"/>
		
			<path fill-rule="evenodd" clip-rule="evenodd" fill="none" stroke="#FFFFFF" stroke-width="0.8" stroke-linecap="round" stroke-linejoin="round" stroke-miterlimit="10" d="
			M369.998,124.625l0.462,0.62l2.546,4.552l-4.168-1.158L369.998,124.625 M338.201,140.138l1.158-4.244l1.697,8.642v0.309
			l-3.24-2.47l0.076-1.079v-0.079l0.078-0.384v-0.079l0.154-0.308l0.076-0.23V140.138"/>
		
			<path fill-rule="evenodd" clip-rule="evenodd" fill="none" stroke="#FFFFFF" stroke-width="0.8" stroke-linecap="round" stroke-linejoin="round" stroke-miterlimit="10" d="
			M343.064,123.776l-1.699,2.161l-0.154,0.154l-0.23,0.462l-1.004,2.086l0.23-0.928v-0.076l0.079-0.233l0.538-1.312L343.064,123.776
			 M338.125,132.729l-0.695,1.158l-0.85,1.928l1.391-0.154l0.23,3.086l0.617-2.083l0.311-1.079l-1.158,0.076v-0.462L338.125,132.729
			"/>
		
			<path fill-rule="evenodd" clip-rule="evenodd" fill="none" stroke="#FFFFFF" stroke-width="0.8" stroke-linecap="round" stroke-linejoin="round" stroke-miterlimit="10" d="
			M318.523,127.712l-3.782-1.466l-3.396,13.352l19.293-6.714l-11.885-5.093L318.523,127.712 M315.512,197.478l4.015-8.183
			l-18.985,20.759l10.419-3.395l1.235-2.547l0.076-0.154l0.078-0.155l0.076-0.154l0.077-0.154l0.077-0.155l0.077-0.154l0.077-0.154
			l0.077-0.155l0.077-0.154l0.078-0.154l0.076-0.154l0.076-0.154l0.078-0.154l0.076-0.157l0.078-0.154l0.078-0.154l0.075-0.154
			l0.079-0.154l0.076-0.154l0.078-0.154l0.076-0.154l0.077-0.154l0.077-0.154l0.078-0.154l0.076-0.154l0.077-0.154l0.079-0.155
			l0.075-0.154l0.079-0.154l0.076-0.157l0.077-0.155l0.077-0.154l0.077-0.154l0.077-0.154l0.077-0.154l0.077-0.154l0.077-0.154
			l0.077-0.154l0.076-0.154l0.078-0.154l0.076-0.154l0.079-0.154L315.512,197.478"/>
		
			<path fill-rule="evenodd" clip-rule="evenodd" fill="none" stroke="#FFFFFF" stroke-width="0.8" stroke-linecap="round" stroke-linejoin="round" stroke-miterlimit="10" d="
			M340.207,127.712l-0.23,0.928l-0.54,1.312l-0.927,1.696h-0.076l0.076-0.154l0.078-0.076l0.076-0.154l0.077-0.233l0.155-0.384
			l0.078-0.157l0.154-0.384L340.207,127.712 M372.236,135.661h0.23l-0.076,0.309L372.236,135.661"/>
		
			<polyline fill-rule="evenodd" clip-rule="evenodd" fill="none" stroke="#FFFFFF" stroke-width="0.8" stroke-linecap="round" stroke-linejoin="round" stroke-miterlimit="10" points="
			368.838,128.64 373.006,129.797 373.006,129.873 370.537,132.342 368.838,128.64 		"/>
		
			<polyline fill-rule="evenodd" clip-rule="evenodd" fill="none" stroke="#FFFFFF" stroke-width="0.8" stroke-linecap="round" stroke-linejoin="round" stroke-miterlimit="10" points="
			339.514,129.951 339.437,129.951 338.51,131.647 338.125,132.729 337.971,135.199 337.971,135.661 339.129,135.585 
			339.129,135.045 339.203,134.812 339.203,134.658 339.514,130.027 339.514,129.951 		"/>
		
			<path fill-rule="evenodd" clip-rule="evenodd" fill="none" stroke="#FFFFFF" stroke-width="0.8" stroke-linecap="round" stroke-linejoin="round" stroke-miterlimit="10" d="
			M338.434,131.647h0.076l-0.385,1.082l-0.695,1.158L338.434,131.647 M372.236,135.432l1.695-2.548l-1.465,2.778h-0.23V135.432"/>
		
			<path fill-rule="evenodd" clip-rule="evenodd" fill="none" stroke="#FFFFFF" stroke-width="0.8" stroke-linecap="round" stroke-linejoin="round" stroke-miterlimit="10" d="
			M373.006,129.873l-2.469,2.469v0.079l1.699,3.011l0.074-0.466l0.08-0.229v-0.079L373.006,129.873 M357.881,147.468l-4.631,0.541
			l0.539,6.021L357.881,147.468 M249.453,252.116l-5.17,2.235l-2.703,1.083l-0.23,0.077l-2.547,0.928l2.702,1.157l9.646-3.089
			L249.453,252.116 M199.752,254.66l-22.226-2.699l15.205,6.021l7.484-3.241h-0.152l-0.231-0.08H199.752"/>
		
			<path fill-rule="evenodd" clip-rule="evenodd" fill="none" stroke="#FFFFFF" stroke-width="0.8" stroke-linecap="round" stroke-linejoin="round" stroke-miterlimit="10" d="
			M374.318,131.88l-0.541-1.853l-1.387,4.631v0.079l-0.08,0.229l-0.074,0.466l1.695-2.548v-0.075l0.078-0.157l0.154-0.23
			L374.318,131.88 M236.487,257.21l2.315-0.771l2.702,1.157l-3.86-0.312L236.487,257.21"/>
		
			<polyline fill-rule="evenodd" clip-rule="evenodd" fill="none" stroke="#FFFFFF" stroke-width="0.8" stroke-linecap="round" stroke-linejoin="round" stroke-miterlimit="10" points="
			330.639,132.883 330.717,132.883 329.943,144.228 329.096,154.105 321.301,144.998 330.562,133.038 330.639,132.883 		"/>
		
			<polyline fill-rule="evenodd" clip-rule="evenodd" fill="none" stroke="#FFFFFF" stroke-width="0.8" stroke-linecap="round" stroke-linejoin="round" stroke-miterlimit="10" points="
			330.639,132.883 330.562,133.038 312.426,146.543 311.422,139.675 311.346,139.597 330.639,132.883 		"/>
		
			<polyline fill-rule="evenodd" clip-rule="evenodd" fill="none" stroke="#FFFFFF" stroke-width="0.8" stroke-linecap="round" stroke-linejoin="round" stroke-miterlimit="10" points="
			185.708,134.583 236.025,123.005 200.833,151.791 185.63,134.736 185.708,134.583 		"/>
		
			<polyline fill-rule="evenodd" clip-rule="evenodd" fill="none" stroke="#FFFFFF" stroke-width="0.8" stroke-linecap="round" stroke-linejoin="round" stroke-miterlimit="10" points="
			126.903,134.966 108.072,119.765 120.188,147.16 126.903,135.045 126.903,134.966 		"/>
		
			<path fill-rule="evenodd" clip-rule="evenodd" fill="none" stroke="#FFFFFF" stroke-width="0.8" stroke-linecap="round" stroke-linejoin="round" stroke-miterlimit="10" d="
			M126.903,134.966l23.691-11.728l10.109,18.753L126.903,134.966 M152.061,192.54l26.393-10.96l7.794,16.903h-0.076L152.061,192.54
			 M231.471,218.546h0.156l27.936-9.415l2.007,14.047l-24.155,8.178L231.471,218.546"/>
		
			<path fill-rule="evenodd" clip-rule="evenodd" fill="none" stroke="#FFFFFF" stroke-width="0.8" stroke-linecap="round" stroke-linejoin="round" stroke-miterlimit="10" d="
			M344.222,135.12l1.003-11.036l-5.788,11.347l-0.077,0.229h4.783L344.222,135.12 M367.297,141.374l-0.465-5.713l-3.008,10.882
			v0.308l3.318-5.172L367.297,141.374"/>
		
			<polyline fill-rule="evenodd" clip-rule="evenodd" fill="none" stroke="#FFFFFF" stroke-width="0.8" stroke-linecap="round" stroke-linejoin="round" stroke-miterlimit="10" points="
			344.222,135.12 349.16,121.231 349.932,135.661 349.855,135.894 358.885,135.585 358.807,135.815 353.404,147.776 
			349.855,136.048 349.855,135.894 344.143,135.661 344.222,135.12 		"/>
		
			<polyline fill-rule="evenodd" clip-rule="evenodd" fill="none" stroke="#FFFFFF" stroke-width="0.8" stroke-linecap="round" stroke-linejoin="round" stroke-miterlimit="10" points="
			363.205,135.278 368.763,128.715 366.91,135.353 366.832,135.661 363.824,146.543 363.051,135.278 363.205,135.278 		"/>
		
			<polyline fill-rule="evenodd" clip-rule="evenodd" fill="none" stroke="#FFFFFF" stroke-width="0.8" stroke-linecap="round" stroke-linejoin="round" stroke-miterlimit="10" points="
			370.306,135.432 370.537,132.421 372.236,135.432 372.236,135.661 372.157,135.815 370.537,138.518 370.306,135.507 
			370.306,135.432 		"/>
		
			<path fill-rule="evenodd" clip-rule="evenodd" fill="none" stroke="#FFFFFF" stroke-width="0.8" stroke-linecap="round" stroke-linejoin="round" stroke-miterlimit="10" d="
			M126.903,135.045l0.229,0.541l6.869,19.832l-13.813-8.258L126.903,135.045 M120.65,175.099l-0.077,0.154l-1.003,16.746v0.233
			l3.937-3.781L120.65,175.099"/>
		
			<polyline fill-rule="evenodd" clip-rule="evenodd" fill="none" stroke="#FFFFFF" stroke-width="0.8" stroke-linecap="round" stroke-linejoin="round" stroke-miterlimit="10" points="
			358.885,135.585 357.959,123.7 349.932,135.661 349.855,135.894 358.885,135.585 		"/>
		
			<path fill-rule="evenodd" clip-rule="evenodd" fill="none" stroke="#FFFFFF" stroke-width="0.8" stroke-linecap="round" stroke-linejoin="round" stroke-miterlimit="10" d="
			M358.885,135.585h0.154l4.012-0.308l-5.092,11.806l0.848-11.269L358.885,135.585 M275.383,254.045l-8.643-9.184l3.316,17.518
			l5.635-7.871L275.383,254.045"/>
		
			<path fill-rule="evenodd" clip-rule="evenodd" fill="none" stroke="#FFFFFF" stroke-width="0.8" stroke-linecap="round" stroke-linejoin="round" stroke-miterlimit="10" d="
			M372.236,135.661l-0.079,0.154L371,140.446v0.308l2.702,0.542l-1.312-5.326L372.236,135.661 M341.057,144.536l3.086-8.875
			l1.699,10.806l-4.708-1.623h-0.077V144.536"/>
		
			<path fill-rule="evenodd" clip-rule="evenodd" fill="none" stroke="#FFFFFF" stroke-width="0.8" stroke-linecap="round" stroke-linejoin="round" stroke-miterlimit="10" d="
			M337.971,135.661l-1.391,0.154l0.464,1.003l1.157,1.928L337.971,135.661 M341.057,144.844h0.077l2.934,3.938l-4.864-2.394
			L341.057,144.844 M207.779,253.195l-24.849-3.086l16.822,4.551h0.079l0.231,0.08h0.152h0.31L207.779,253.195"/>
		
			<polyline fill-rule="evenodd" clip-rule="evenodd" fill="none" stroke="#FFFFFF" stroke-width="0.8" stroke-linecap="round" stroke-linejoin="round" stroke-miterlimit="10" points="
			305.788,138.055 273.684,130.876 242.121,138.593 305.788,138.055 		"/>
		
			<polyline fill-rule="evenodd" clip-rule="evenodd" fill="none" stroke="#FFFFFF" stroke-width="0.8" stroke-linecap="round" stroke-linejoin="round" stroke-miterlimit="10" points="
			306.021,138.055 296.374,124.317 311.346,139.597 306.176,138.131 306.021,138.055 		"/>
		
			<polyline fill-rule="evenodd" clip-rule="evenodd" fill="none" stroke="#FFFFFF" stroke-width="0.8" stroke-linecap="round" stroke-linejoin="round" stroke-miterlimit="10" points="
			305.788,138.055 306.021,138.055 249.453,152.253 241.813,138.672 241.813,138.593 242.121,138.593 305.788,138.055 		"/>
		
			<polyline fill-rule="evenodd" clip-rule="evenodd" fill="none" stroke="#FFFFFF" stroke-width="0.8" stroke-linecap="round" stroke-linejoin="round" stroke-miterlimit="10" points="
			306.021,138.055 306.176,138.131 289.197,158.503 289.119,158.658 288.965,158.815 249.529,152.253 249.453,152.253 
			306.021,138.055 		"/>
		
			<polyline fill-rule="evenodd" clip-rule="evenodd" fill="none" stroke="#FFFFFF" stroke-width="0.8" stroke-linecap="round" stroke-linejoin="round" stroke-miterlimit="10" points="
			241.813,138.672 241.58,138.747 204.152,169.077 249.453,152.253 241.813,138.672 		"/>
		
			<polyline fill-rule="evenodd" clip-rule="evenodd" fill="none" stroke="#FFFFFF" stroke-width="0.8" stroke-linecap="round" stroke-linejoin="round" stroke-miterlimit="10" points="
			306.176,138.131 311.346,139.597 311.422,139.675 289.197,158.503 306.176,138.131 		"/>
		
			<polyline fill-rule="evenodd" clip-rule="evenodd" fill="none" stroke="#FFFFFF" stroke-width="0.8" stroke-linecap="round" stroke-linejoin="round" stroke-miterlimit="10" points="
			160.704,141.991 185.63,134.736 166.262,150.17 160.781,142.066 160.704,141.991 		"/>
		
			<path fill-rule="evenodd" clip-rule="evenodd" fill="none" stroke="#FFFFFF" stroke-width="0.8" stroke-linecap="round" stroke-linejoin="round" stroke-miterlimit="10" d="
			M160.704,141.991l0.077,0.075l-5.247,23.308l22.919,16.205l-26.393,10.96h-0.233l3.627-27.09l-0.309-0.229l-19.061-11.656
			L160.704,141.991 M195.046,214.07l-30.099-10.111l6.02,18.599L195.046,214.07"/>
		
			<path fill-rule="evenodd" clip-rule="evenodd" fill="none" stroke="#FFFFFF" stroke-width="0.8" stroke-linecap="round" stroke-linejoin="round" stroke-miterlimit="10" d="
			M341.057,144.844l-3.24-2.47l1.387,4.014L341.057,144.844 M345.842,146.467h0.077l2.084,2.7l-1.466-0.079l-2.315-0.229
			L345.842,146.467 M293.44,247.098l-0.462,0.467l-0.463,0.463l-0.309,0.229l-9.803,8.721l-0.154,0.153l-0.229,0.155l-4.477,2.085
			l8.797-8.874l0.154-0.233l0.076-0.075L293.44,247.098"/>
		
			<polyline fill-rule="evenodd" clip-rule="evenodd" fill="none" stroke="#FFFFFF" stroke-width="0.8" stroke-linecap="round" stroke-linejoin="round" stroke-miterlimit="10" points="
			321.301,144.998 330.562,133.038 312.426,146.543 321.301,144.998 		"/>
		
			<polyline fill-rule="evenodd" clip-rule="evenodd" fill="none" stroke="#FFFFFF" stroke-width="0.8" stroke-linecap="round" stroke-linejoin="round" stroke-miterlimit="10" points="
			341.134,144.844 345.842,146.467 344.222,148.858 344.067,148.783 341.134,144.844 		"/>
		
			<path fill-rule="evenodd" clip-rule="evenodd" fill="none" stroke="#FFFFFF" stroke-width="0.8" stroke-linecap="round" stroke-linejoin="round" stroke-miterlimit="10" d="
			M345.842,146.467l4.014-10.419l3.549,11.728l-0.154,0.233l-7.331-1.542H345.842 M216.655,258.442l2.546,1.545l-6.329,0.542
			L216.655,258.442"/>
		
			<polyline fill-rule="evenodd" clip-rule="evenodd" fill="none" stroke="#FFFFFF" stroke-width="0.8" stroke-linecap="round" stroke-linejoin="round" stroke-miterlimit="10" points="
			368.299,145.307 371.309,146.389 366.369,148.704 368.299,145.307 		"/>
		
			<polyline fill-rule="evenodd" clip-rule="evenodd" fill="none" stroke="#FFFFFF" stroke-width="0.8" stroke-linecap="round" stroke-linejoin="round" stroke-miterlimit="10" points="
			312.426,146.543 311.422,139.675 289.197,158.503 289.119,158.658 312.426,146.697 312.426,146.543 		"/>
		
			<path fill-rule="evenodd" clip-rule="evenodd" fill="none" stroke="#FFFFFF" stroke-width="0.8" stroke-linecap="round" stroke-linejoin="round" stroke-miterlimit="10" d="
			M363.824,146.543l-0.773-11.265l-5.092,11.806l-0.078,0.384l5.943-0.617V146.543 M270.057,262.379l-9.028-11.033l2.47,16.438
			l6.559-5.326V262.379"/>
		
			<polyline fill-rule="evenodd" clip-rule="evenodd" fill="none" stroke="#FFFFFF" stroke-width="0.8" stroke-linecap="round" stroke-linejoin="round" stroke-miterlimit="10" points="
			321.301,144.998 312.426,146.543 312.426,146.697 323.616,167.998 321.301,144.998 		"/>
		
			<path fill-rule="evenodd" clip-rule="evenodd" fill="none" stroke="#FFFFFF" stroke-width="0.8" stroke-linecap="round" stroke-linejoin="round" stroke-miterlimit="10" d="
			M363.824,146.851l3.318-5.172l-1.775,8.799l-1.543-3.548V146.851 M237.645,257.285l3.86,0.312l0.231,0.153l4.552,12.577
			l-3.473-5.093l-1.544-2.316L237.645,257.285"/>
		
			<polyline fill-rule="evenodd" clip-rule="evenodd" fill="none" stroke="#FFFFFF" stroke-width="0.8" stroke-linecap="round" stroke-linejoin="round" stroke-miterlimit="10" points="
			353.25,148.009 345.919,146.467 348.003,149.167 353.25,148.009 		"/>
		
			<polyline fill-rule="evenodd" clip-rule="evenodd" fill="none" stroke="#FFFFFF" stroke-width="0.8" stroke-linecap="round" stroke-linejoin="round" stroke-miterlimit="10" points="
			166.262,150.17 185.63,134.736 200.833,151.791 200.756,151.869 166.262,150.17 		"/>
		
			<path fill-rule="evenodd" clip-rule="evenodd" fill="none" stroke="#FFFFFF" stroke-width="0.8" stroke-linecap="round" stroke-linejoin="round" stroke-miterlimit="10" d="
			M166.262,150.17v0.076l12.191,31.333l0.156-0.155l22.147-29.556L166.262,150.17 M227.305,177.414l40.129,5.477l0.078,0.079
			l-41.752,16.438L227.305,177.414"/>
		
			<path fill-rule="evenodd" clip-rule="evenodd" fill="none" stroke="#FFFFFF" stroke-width="0.8" stroke-linecap="round" stroke-linejoin="round" stroke-miterlimit="10" d="
			M365.367,150.479l-1.543-3.548l-4.015,6.25l5.325-2.548h0.076L365.367,150.479 M253.928,250.263l12.812-5.401l-5.712,6.25
			L253.928,250.263"/>
		
			<polyline fill-rule="evenodd" clip-rule="evenodd" fill="none" stroke="#FFFFFF" stroke-width="0.8" stroke-linecap="round" stroke-linejoin="round" stroke-miterlimit="10" points="
			122.04,151.095 120.188,147.16 134.001,155.417 122.04,151.095 		"/>
		
			<polyline fill-rule="evenodd" clip-rule="evenodd" fill="none" stroke="#FFFFFF" stroke-width="0.8" stroke-linecap="round" stroke-linejoin="round" stroke-miterlimit="10" points="
			200.756,151.869 200.833,151.791 241.58,138.747 204.152,169.077 200.756,151.869 		"/>
		
			<polyline fill-rule="evenodd" clip-rule="evenodd" fill="none" stroke="#FFFFFF" stroke-width="0.8" stroke-linecap="round" stroke-linejoin="round" stroke-miterlimit="10" points="
			249.453,152.253 249.529,152.253 288.965,158.815 288.889,158.815 250.92,171.546 227.305,177.414 249.453,152.253 		"/>
		
			<path fill-rule="evenodd" clip-rule="evenodd" fill="none" stroke="#FFFFFF" stroke-width="0.8" stroke-linecap="round" stroke-linejoin="round" stroke-miterlimit="10" d="
			M350.318,152.64l-2.161-3.319l5.479,4.63l-3.009-0.925L350.318,152.64 M282.021,257.285l-4.477,2.085l-0.155,0.076l-0.308,0.153
			L276,260.448l-0.154,0.081l-0.078,0.074l-8.334,5.559l2.393-1.157l0.23-0.156L282.021,257.285"/>
		
			<polyline fill-rule="evenodd" clip-rule="evenodd" fill="none" stroke="#FFFFFF" stroke-width="0.8" stroke-linecap="round" stroke-linejoin="round" stroke-miterlimit="10" points="
			359.81,153.181 365.135,150.632 362.279,153.026 359.81,153.181 		"/>
		
			<path fill-rule="evenodd" clip-rule="evenodd" fill="none" stroke="#FFFFFF" stroke-width="0.8" stroke-linecap="round" stroke-linejoin="round" stroke-miterlimit="10" d="
			M136.086,153.564l-8.953-17.979l6.869,19.832l0.154,0.154L136.086,153.564 M131.301,203.342l-0.695-5.401l-7.409,11.577
			l8.027-6.097L131.301,203.342"/>
		
			<polyline fill-rule="evenodd" clip-rule="evenodd" fill="none" stroke="#FFFFFF" stroke-width="0.8" stroke-linecap="round" stroke-linejoin="round" stroke-miterlimit="10" points="
			329.096,154.105 329.943,144.228 332.027,151.02 329.096,154.105 		"/>
		
			<polyline fill-rule="evenodd" clip-rule="evenodd" fill="none" stroke="#FFFFFF" stroke-width="0.8" stroke-linecap="round" stroke-linejoin="round" stroke-miterlimit="10" points="
			329.096,154.105 321.301,144.998 323.616,167.998 329.096,154.26 329.096,154.105 		"/>
		
			<polyline fill-rule="evenodd" clip-rule="evenodd" fill="none" stroke="#FFFFFF" stroke-width="0.8" stroke-linecap="round" stroke-linejoin="round" stroke-miterlimit="10" points="
			134.001,155.417 122.04,151.095 120.728,174.866 134.156,155.65 134.156,155.572 134.001,155.417 		"/>
		
			<polyline fill-rule="evenodd" clip-rule="evenodd" fill="none" stroke="#FFFFFF" stroke-width="0.8" stroke-linecap="round" stroke-linejoin="round" stroke-miterlimit="10" points="
			136.086,153.564 134.156,155.572 155.146,165.22 136.086,153.564 		"/>
		
			<path fill-rule="evenodd" clip-rule="evenodd" fill="none" stroke="#FFFFFF" stroke-width="0.8" stroke-linecap="round" stroke-linejoin="round" stroke-miterlimit="10" d="
			M134.156,155.65v-0.078l20.991,9.648l0.309,0.229l-26.315,19.293L134.156,155.65 M227.227,177.414l-23.151-8.258l-17.828,29.326
			h0.079L227.227,177.414 M280.245,228.809l-18.599-5.556l0.771,11.885L280.245,228.809"/>
		
			<polyline fill-rule="evenodd" clip-rule="evenodd" fill="none" stroke="#FFFFFF" stroke-width="0.8" stroke-linecap="round" stroke-linejoin="round" stroke-miterlimit="10" points="
			289.119,158.658 312.426,146.697 309.879,171.005 288.965,158.815 289.119,158.658 		"/>
		
			<polyline fill-rule="evenodd" clip-rule="evenodd" fill="none" stroke="#FFFFFF" stroke-width="0.8" stroke-linecap="round" stroke-linejoin="round" stroke-miterlimit="10" points="
			288.965,158.815 288.889,158.815 267.588,182.891 285.955,177.722 288.965,158.815 		"/>
		
			<polyline fill-rule="evenodd" clip-rule="evenodd" fill="none" stroke="#FFFFFF" stroke-width="0.8" stroke-linecap="round" stroke-linejoin="round" stroke-miterlimit="10" points="
			155.534,165.374 166.262,150.246 178.453,181.579 155.534,165.374 		"/>
		
			<polyline fill-rule="evenodd" clip-rule="evenodd" fill="none" stroke="#FFFFFF" stroke-width="0.8" stroke-linecap="round" stroke-linejoin="round" stroke-miterlimit="10" points="
			323.616,167.998 312.426,146.697 309.879,171.005 323.616,168.152 323.616,167.998 		"/>
		
			<polyline fill-rule="evenodd" clip-rule="evenodd" fill="none" stroke="#FFFFFF" stroke-width="0.8" stroke-linecap="round" stroke-linejoin="round" stroke-miterlimit="10" points="
			323.616,167.998 329.096,154.26 330.33,174.095 323.616,168.152 323.616,167.998 		"/>
		
			<polyline fill-rule="evenodd" clip-rule="evenodd" fill="none" stroke="#FFFFFF" stroke-width="0.8" stroke-linecap="round" stroke-linejoin="round" stroke-miterlimit="10" points="
			204.152,169.077 200.756,151.869 178.609,181.424 204.075,169.156 204.152,169.077 		"/>
		
			<polyline fill-rule="evenodd" clip-rule="evenodd" fill="none" stroke="#FFFFFF" stroke-width="0.8" stroke-linecap="round" stroke-linejoin="round" stroke-miterlimit="10" points="
			204.152,169.077 249.453,152.253 227.305,177.414 227.227,177.414 204.075,169.156 204.152,169.077 		"/>
		
			<polyline fill-rule="evenodd" clip-rule="evenodd" fill="none" stroke="#FFFFFF" stroke-width="0.8" stroke-linecap="round" stroke-linejoin="round" stroke-miterlimit="10" points="
			323.616,168.152 323.461,169.156 323.383,169.385 323.383,169.54 321.688,185.285 330.33,174.095 323.616,168.152 		"/>
		
			<polyline fill-rule="evenodd" clip-rule="evenodd" fill="none" stroke="#FFFFFF" stroke-width="0.8" stroke-linecap="round" stroke-linejoin="round" stroke-miterlimit="10" points="
			323.616,168.152 323.461,169.156 323.383,169.385 323.383,169.54 319.68,188.912 319.604,189.066 309.803,171.084 
			309.879,171.005 323.616,168.152 		"/>
		
			<polyline fill-rule="evenodd" clip-rule="evenodd" fill="none" stroke="#FFFFFF" stroke-width="0.8" stroke-linecap="round" stroke-linejoin="round" stroke-miterlimit="10" points="
			288.965,158.815 309.879,171.005 309.803,171.084 285.955,177.722 288.965,158.815 		"/>
		
			<polyline fill-rule="evenodd" clip-rule="evenodd" fill="none" stroke="#FFFFFF" stroke-width="0.8" stroke-linecap="round" stroke-linejoin="round" stroke-miterlimit="10" points="
			250.92,171.546 288.889,158.815 267.588,182.891 267.434,182.891 250.92,171.546 		"/>
		
			<polyline fill-rule="evenodd" clip-rule="evenodd" fill="none" stroke="#FFFFFF" stroke-width="0.8" stroke-linecap="round" stroke-linejoin="round" stroke-miterlimit="10" points="
			120.728,174.866 120.65,175.099 123.507,188.45 129.14,184.898 129.14,184.743 120.728,174.866 		"/>
		
			<polyline fill-rule="evenodd" clip-rule="evenodd" fill="none" stroke="#FFFFFF" stroke-width="0.8" stroke-linecap="round" stroke-linejoin="round" stroke-miterlimit="10" points="
			250.92,171.546 227.305,177.414 267.434,182.891 250.92,171.546 		"/>
		
			<polyline fill-rule="evenodd" clip-rule="evenodd" fill="none" stroke="#FFFFFF" stroke-width="0.8" stroke-linecap="round" stroke-linejoin="round" stroke-miterlimit="10" points="
			227.305,177.414 227.227,177.414 186.326,198.482 225.605,199.407 225.76,199.407 227.305,177.414 		"/>
		
			<path fill-rule="evenodd" clip-rule="evenodd" fill="none" stroke="#FFFFFF" stroke-width="0.8" stroke-linecap="round" stroke-linejoin="round" stroke-miterlimit="10" d="
			M309.803,171.084l-23.848,6.638l1.543,14.738L309.803,171.084 M241.35,255.512l-28.631-2.238l9.338,8.334l0.463,0.232l3.781-1.236
			l1.62-0.537l0.927-0.312l7.64-2.544l2.315-0.771L241.35,255.512"/>
		
			<polyline fill-rule="evenodd" clip-rule="evenodd" fill="none" stroke="#FFFFFF" stroke-width="0.8" stroke-linecap="round" stroke-linejoin="round" stroke-miterlimit="10" points="
			178.609,181.424 204.075,169.156 186.247,198.482 178.453,181.579 178.609,181.424 		"/>
		
			<polyline fill-rule="evenodd" clip-rule="evenodd" fill="none" stroke="#FFFFFF" stroke-width="0.8" stroke-linecap="round" stroke-linejoin="round" stroke-miterlimit="10" points="
			267.434,182.891 267.588,182.891 285.955,177.722 287.498,192.46 267.512,182.969 267.434,182.891 		"/>
		
			<polyline fill-rule="evenodd" clip-rule="evenodd" fill="none" stroke="#FFFFFF" stroke-width="0.8" stroke-linecap="round" stroke-linejoin="round" stroke-miterlimit="10" points="
			129.14,184.743 155.455,165.45 151.828,192.54 129.14,184.898 129.14,184.743 		"/>
		
			<polyline fill-rule="evenodd" clip-rule="evenodd" fill="none" stroke="#FFFFFF" stroke-width="0.8" stroke-linecap="round" stroke-linejoin="round" stroke-miterlimit="10" points="
			129.217,185.206 129.14,184.898 123.507,188.45 129.989,191.919 129.217,185.206 		"/>
		
			<polyline fill-rule="evenodd" clip-rule="evenodd" fill="none" stroke="#FFFFFF" stroke-width="0.8" stroke-linecap="round" stroke-linejoin="round" stroke-miterlimit="10" points="
			129.217,185.206 129.14,184.898 151.828,192.54 133.771,197.554 129.217,185.206 		"/>
		
			<polyline fill-rule="evenodd" clip-rule="evenodd" fill="none" stroke="#FFFFFF" stroke-width="0.8" stroke-linecap="round" stroke-linejoin="round" stroke-miterlimit="10" points="
			321.688,185.285 323.383,169.54 319.68,188.912 320.683,187.292 320.683,187.213 320.76,187.059 320.838,186.905 320.914,186.75 
			320.992,186.597 321.069,186.442 321.688,185.285 		"/>
		
			<polyline fill-rule="evenodd" clip-rule="evenodd" fill="none" stroke="#FFFFFF" stroke-width="0.8" stroke-linecap="round" stroke-linejoin="round" stroke-miterlimit="10" points="
			319.604,189.066 309.803,171.084 301.236,193.077 319.526,189.295 319.604,189.066 		"/>
		
			<path fill-rule="evenodd" clip-rule="evenodd" fill="none" stroke="#FFFFFF" stroke-width="0.8" stroke-linecap="round" stroke-linejoin="round" stroke-miterlimit="10" d="
			M129.217,185.206l0.772,6.713l0.154,1.469l0.462,4.552l0.695,5.401l2.47-5.788L129.217,185.206 M170.968,222.558l0.154,0.078
			l11.499,12.423l0.079,0.079l-14.046,5.864l-0.154-0.076l-12.81-11.422h0.154L170.968,222.558"/>
		
			<path fill-rule="evenodd" clip-rule="evenodd" fill="none" stroke="#FFFFFF" stroke-width="0.8" stroke-linecap="round" stroke-linejoin="round" stroke-miterlimit="10" d="
			M119.57,191.998l-2.162-6.484l3.165-10.262L119.57,191.998 M123.197,209.518l-3.627-16.978l-1.466,26.777l5.016-9.569
			L123.197,209.518"/>
		
			<polyline fill-rule="evenodd" clip-rule="evenodd" fill="none" stroke="#FFFFFF" stroke-width="0.8" stroke-linecap="round" stroke-linejoin="round" stroke-miterlimit="10" points="
			287.498,192.46 267.512,182.969 259.562,209.131 259.793,209.131 287.498,192.54 287.498,192.46 		"/>
		
			<polyline fill-rule="evenodd" clip-rule="evenodd" fill="none" stroke="#FFFFFF" stroke-width="0.8" stroke-linecap="round" stroke-linejoin="round" stroke-miterlimit="10" points="
			287.498,192.46 309.803,171.084 301.236,193.077 287.498,192.46 		"/>
		
			<polyline fill-rule="evenodd" clip-rule="evenodd" fill="none" stroke="#FFFFFF" stroke-width="0.8" stroke-linecap="round" stroke-linejoin="round" stroke-miterlimit="10" points="
			119.57,192.231 119.57,192.54 123.197,209.518 130.605,197.94 130.143,193.389 119.57,192.231 		"/>
		
			<polyline fill-rule="evenodd" clip-rule="evenodd" fill="none" stroke="#FFFFFF" stroke-width="0.8" stroke-linecap="round" stroke-linejoin="round" stroke-miterlimit="10" points="
			287.498,192.46 287.498,192.54 283.562,215.769 301.236,193.156 301.236,193.077 287.498,192.46 		"/>
		
			<polyline fill-rule="evenodd" clip-rule="evenodd" fill="none" stroke="#FFFFFF" stroke-width="0.8" stroke-linecap="round" stroke-linejoin="round" stroke-miterlimit="10" points="
			151.828,192.54 152.061,192.54 186.171,198.482 164.871,203.883 151.983,192.614 151.828,192.54 		"/>
		
			<path fill-rule="evenodd" clip-rule="evenodd" fill="none" stroke="#FFFFFF" stroke-width="0.8" stroke-linecap="round" stroke-linejoin="round" stroke-miterlimit="10" d="
			M151.828,192.54l0.156,0.075l-3.937,9.878h-0.231l-14.045-4.939L151.828,192.54 M138.556,212.834l-7.332-9.413l-10.263,29.788
			l-0.079,0.154l0.079,0.229l17.595-20.681V212.834"/>
		
			<polyline fill-rule="evenodd" clip-rule="evenodd" fill="none" stroke="#FFFFFF" stroke-width="0.8" stroke-linecap="round" stroke-linejoin="round" stroke-miterlimit="10" points="
			301.236,193.077 319.526,189.295 300.541,210.055 301.236,193.156 301.236,193.077 		"/>
		
			<polyline fill-rule="evenodd" clip-rule="evenodd" fill="none" stroke="#FFFFFF" stroke-width="0.8" stroke-linecap="round" stroke-linejoin="round" stroke-miterlimit="10" points="
			186.247,198.482 186.171,198.482 164.871,203.883 164.948,203.959 195.046,214.07 186.326,198.482 186.247,198.482 		"/>
		
			<polyline fill-rule="evenodd" clip-rule="evenodd" fill="none" stroke="#FFFFFF" stroke-width="0.8" stroke-linecap="round" stroke-linejoin="round" stroke-miterlimit="10" points="
			225.76,199.407 267.512,182.969 259.562,209.131 225.76,199.407 		"/>
		
			<path fill-rule="evenodd" clip-rule="evenodd" fill="none" stroke="#FFFFFF" stroke-width="0.8" stroke-linecap="round" stroke-linejoin="round" stroke-miterlimit="10" d="
			M186.326,198.482l39.28,0.925l-30.33,14.664h-0.229L186.326,198.482 M259.562,209.131l-33.803-9.724l5.711,19.139h0.156
			L259.562,209.131"/>
		
			<polyline fill-rule="evenodd" clip-rule="evenodd" fill="none" stroke="#FFFFFF" stroke-width="0.8" stroke-linecap="round" stroke-linejoin="round" stroke-miterlimit="10" points="
			225.76,199.407 225.605,199.407 195.276,214.07 231.471,218.546 225.76,199.407 		"/>
		
			<polyline fill-rule="evenodd" clip-rule="evenodd" fill="none" stroke="#FFFFFF" stroke-width="0.8" stroke-linecap="round" stroke-linejoin="round" stroke-miterlimit="10" points="
			147.815,202.493 133.771,197.554 131.301,203.342 132.227,203.342 147.815,202.493 		"/>
		
			<polyline fill-rule="evenodd" clip-rule="evenodd" fill="none" stroke="#FFFFFF" stroke-width="0.8" stroke-linecap="round" stroke-linejoin="round" stroke-miterlimit="10" points="
			148.046,202.493 151.983,192.614 164.871,203.883 164.021,203.883 148.046,202.493 		"/>
		
			<path fill-rule="evenodd" clip-rule="evenodd" fill="none" stroke="#FFFFFF" stroke-width="0.8" stroke-linecap="round" stroke-linejoin="round" stroke-miterlimit="10" d="
			M147.815,202.493h0.231l15.975,1.391l-15.588-0.462L147.815,202.493 M259.793,209.131l27.705-16.591l-3.936,23.229
			L259.793,209.131"/>
		
			<polyline fill-rule="evenodd" clip-rule="evenodd" fill="none" stroke="#FFFFFF" stroke-width="0.8" stroke-linecap="round" stroke-linejoin="round" stroke-miterlimit="10" points="
			147.815,202.493 132.227,203.342 148.433,203.421 147.815,202.493 		"/>
		
			<path fill-rule="evenodd" clip-rule="evenodd" fill="none" stroke="#FFFFFF" stroke-width="0.8" stroke-linecap="round" stroke-linejoin="round" stroke-miterlimit="10" d="
			M131.301,203.342h0.926l16.206,0.079l0.078,0.076l-9.955,9.337l-7.332-9.413L131.301,203.342 M138.556,212.912l10.34,10.031
			l-27.935,10.649L138.556,212.912"/>
		
			<polyline fill-rule="evenodd" clip-rule="evenodd" fill="none" stroke="#FFFFFF" stroke-width="0.8" stroke-linecap="round" stroke-linejoin="round" stroke-miterlimit="10" points="
			148.433,203.421 148.511,203.497 146.503,211.833 170.968,222.558 164.948,203.959 164.871,203.883 164.021,203.883 
			148.433,203.421 		"/>
		
			<polyline fill-rule="evenodd" clip-rule="evenodd" fill="none" stroke="#FFFFFF" stroke-width="0.8" stroke-linecap="round" stroke-linejoin="round" stroke-miterlimit="10" points="
			259.562,209.131 259.793,209.131 283.562,215.769 283.562,215.923 261.569,223.178 259.562,209.131 		"/>
		
			<polyline fill-rule="evenodd" clip-rule="evenodd" fill="none" stroke="#FFFFFF" stroke-width="0.8" stroke-linecap="round" stroke-linejoin="round" stroke-miterlimit="10" points="
			123.197,209.518 131.224,203.421 120.96,233.209 123.12,209.747 123.197,209.518 		"/>
		
			<polyline fill-rule="evenodd" clip-rule="evenodd" fill="none" stroke="#FFFFFF" stroke-width="0.8" stroke-linecap="round" stroke-linejoin="round" stroke-miterlimit="10" points="
			300.541,210.055 301.236,193.156 283.562,215.769 300.541,210.135 300.541,210.055 		"/>
		
			<polyline fill-rule="evenodd" clip-rule="evenodd" fill="none" stroke="#FFFFFF" stroke-width="0.8" stroke-linecap="round" stroke-linejoin="round" stroke-miterlimit="10" points="
			310.96,206.66 300.541,210.055 300.541,210.135 300.464,210.363 303.164,234.984 310.96,206.66 		"/>
		
			<polyline fill-rule="evenodd" clip-rule="evenodd" fill="none" stroke="#FFFFFF" stroke-width="0.8" stroke-linecap="round" stroke-linejoin="round" stroke-miterlimit="10" points="
			300.541,210.135 300.464,210.363 294.369,238.686 283.562,215.923 283.562,215.769 300.541,210.135 		"/>
		
			<polyline fill-rule="evenodd" clip-rule="evenodd" fill="none" stroke="#FFFFFF" stroke-width="0.8" stroke-linecap="round" stroke-linejoin="round" stroke-miterlimit="10" points="
			146.503,211.833 148.511,203.497 138.556,212.834 146.503,211.833 		"/>
		
			<path fill-rule="evenodd" clip-rule="evenodd" fill="none" stroke="#FFFFFF" stroke-width="0.8" stroke-linecap="round" stroke-linejoin="round" stroke-miterlimit="10" d="
			M138.556,212.834l7.948-1.001l9.105,17.517l-5.709-5.48l-1.004-0.926l-10.34-10.031V212.834 M146.968,230.74l0.154,0.075
			l15.665,12.502l-15.898-6.251L146.968,230.74"/>
		
			<polyline fill-rule="evenodd" clip-rule="evenodd" fill="none" stroke="#FFFFFF" stroke-width="0.8" stroke-linecap="round" stroke-linejoin="round" stroke-miterlimit="10" points="
			195.046,214.07 195.276,214.07 231.471,218.546 204.616,227.268 204.46,227.268 195.046,214.07 		"/>
		
			<polyline fill-rule="evenodd" clip-rule="evenodd" fill="none" stroke="#FFFFFF" stroke-width="0.8" stroke-linecap="round" stroke-linejoin="round" stroke-miterlimit="10" points="
			118.104,219.316 123.12,209.747 120.96,233.209 120.882,233.363 118.104,219.316 		"/>
		
			<polyline fill-rule="evenodd" clip-rule="evenodd" fill="none" stroke="#FFFFFF" stroke-width="0.8" stroke-linecap="round" stroke-linejoin="round" stroke-miterlimit="10" points="
			170.968,222.558 146.503,211.833 155.609,229.35 155.688,229.504 155.842,229.504 170.968,222.558 		"/>
		
			<polyline fill-rule="evenodd" clip-rule="evenodd" fill="none" stroke="#FFFFFF" stroke-width="0.8" stroke-linecap="round" stroke-linejoin="round" stroke-miterlimit="10" points="
			195.046,214.07 170.968,222.558 171.122,222.636 204.46,227.268 195.046,214.07 		"/>
		
			<polyline fill-rule="evenodd" clip-rule="evenodd" fill="none" stroke="#FFFFFF" stroke-width="0.8" stroke-linecap="round" stroke-linejoin="round" stroke-miterlimit="10" points="
			283.562,215.923 261.569,223.178 261.646,223.253 280.245,228.809 283.562,215.923 		"/>
		
			<polyline fill-rule="evenodd" clip-rule="evenodd" fill="none" stroke="#FFFFFF" stroke-width="0.8" stroke-linecap="round" stroke-linejoin="round" stroke-miterlimit="10" points="
			148.896,222.943 149.899,223.869 146.968,230.74 146.889,237.066 122.889,233.9 122.812,233.9 122.272,233.825 121.964,233.747 
			121.654,233.747 121.5,233.672 120.96,233.593 148.896,222.943 		"/>
		
			<polyline fill-rule="evenodd" clip-rule="evenodd" fill="none" stroke="#FFFFFF" stroke-width="0.8" stroke-linecap="round" stroke-linejoin="round" stroke-miterlimit="10" points="
			171.122,222.636 204.46,227.268 204.538,227.342 182.62,235.059 171.122,222.636 		"/>
		
			<polyline fill-rule="evenodd" clip-rule="evenodd" fill="none" stroke="#FFFFFF" stroke-width="0.8" stroke-linecap="round" stroke-linejoin="round" stroke-miterlimit="10" points="
			204.616,227.268 204.46,227.268 204.538,227.342 212.718,253.273 237.414,231.355 204.616,227.268 		"/>
		
			<polyline fill-rule="evenodd" clip-rule="evenodd" fill="none" stroke="#FFFFFF" stroke-width="0.8" stroke-linecap="round" stroke-linejoin="round" stroke-miterlimit="10" points="
			204.616,227.268 231.471,218.546 237.414,231.355 204.616,227.268 		"/>
		
			<polyline fill-rule="evenodd" clip-rule="evenodd" fill="none" stroke="#FFFFFF" stroke-width="0.8" stroke-linecap="round" stroke-linejoin="round" stroke-miterlimit="10" points="
			280.245,228.809 283.562,215.923 294.369,238.686 280.322,228.966 280.245,228.809 		"/>
		
			<polyline fill-rule="evenodd" clip-rule="evenodd" fill="none" stroke="#FFFFFF" stroke-width="0.8" stroke-linecap="round" stroke-linejoin="round" stroke-miterlimit="10" points="
			280.245,228.809 280.322,228.966 275.846,254.508 275.691,254.508 275.383,254.045 262.727,235.6 262.417,235.138 
			280.245,228.809 		"/>
		
			<polyline fill-rule="evenodd" clip-rule="evenodd" fill="none" stroke="#FFFFFF" stroke-width="0.8" stroke-linecap="round" stroke-linejoin="round" stroke-miterlimit="10" points="
			155.688,229.504 146.968,230.74 147.122,230.815 168.498,240.926 155.688,229.504 		"/>
		
			<polyline fill-rule="evenodd" clip-rule="evenodd" fill="none" stroke="#FFFFFF" stroke-width="0.8" stroke-linecap="round" stroke-linejoin="round" stroke-miterlimit="10" points="
			237.414,231.355 237.49,231.432 241.35,255.512 212.718,253.273 237.414,231.355 		"/>
		
			<polyline fill-rule="evenodd" clip-rule="evenodd" fill="none" stroke="#FFFFFF" stroke-width="0.8" stroke-linecap="round" stroke-linejoin="round" stroke-miterlimit="10" points="
			303.164,234.984 300.464,210.363 294.369,238.686 303.164,234.984 		"/>
		
			<polyline fill-rule="evenodd" clip-rule="evenodd" fill="none" stroke="#FFFFFF" stroke-width="0.8" stroke-linecap="round" stroke-linejoin="round" stroke-miterlimit="10" points="
			182.62,235.059 204.538,227.342 212.718,253.273 212.41,253.12 183.084,235.37 182.699,235.138 182.62,235.059 		"/>
		
			<polyline fill-rule="evenodd" clip-rule="evenodd" fill="none" stroke="#FFFFFF" stroke-width="0.8" stroke-linecap="round" stroke-linejoin="round" stroke-miterlimit="10" points="
			182.699,235.138 183.084,235.37 195.2,245.711 168.652,241.002 182.699,235.138 		"/>
		
			<polyline fill-rule="evenodd" clip-rule="evenodd" fill="none" stroke="#FFFFFF" stroke-width="0.8" stroke-linecap="round" stroke-linejoin="round" stroke-miterlimit="10" points="
			262.417,235.138 262.727,235.6 266.74,244.861 253.928,250.263 249.453,252.116 244.283,254.352 241.58,255.435 262.417,235.138 
					"/>
		
			<polyline fill-rule="evenodd" clip-rule="evenodd" fill="none" stroke="#FFFFFF" stroke-width="0.8" stroke-linecap="round" stroke-linejoin="round" stroke-miterlimit="10" points="
			122.889,233.9 146.889,237.066 147.893,238.225 122.889,233.9 		"/>
		
			<polyline fill-rule="evenodd" clip-rule="evenodd" fill="none" stroke="#FFFFFF" stroke-width="0.8" stroke-linecap="round" stroke-linejoin="round" stroke-miterlimit="10" points="
			168.498,240.926 168.652,241.002 182.544,250.033 163.25,243.55 162.942,243.471 168.498,240.926 		"/>
		
			<polyline fill-rule="evenodd" clip-rule="evenodd" fill="none" stroke="#FFFFFF" stroke-width="0.8" stroke-linecap="round" stroke-linejoin="round" stroke-miterlimit="10" points="
			162.942,243.471 163.25,243.55 165.102,244.708 163.25,248.103 153.295,244.245 162.942,243.471 		"/>
		
			<polyline fill-rule="evenodd" clip-rule="evenodd" fill="none" stroke="#FFFFFF" stroke-width="0.8" stroke-linecap="round" stroke-linejoin="round" stroke-miterlimit="10" points="
			195.2,245.711 183.084,235.37 212.41,253.12 195.663,245.941 195.2,245.711 		"/>
		
			<polyline fill-rule="evenodd" clip-rule="evenodd" fill="none" stroke="#FFFFFF" stroke-width="0.8" stroke-linecap="round" stroke-linejoin="round" stroke-miterlimit="10" points="
			195.2,245.711 168.652,241.002 182.544,250.033 195.2,245.711 		"/>
		
			<polyline fill-rule="evenodd" clip-rule="evenodd" fill="none" stroke="#FFFFFF" stroke-width="0.8" stroke-linecap="round" stroke-linejoin="round" stroke-miterlimit="10" points="
			195.2,245.711 195.663,245.941 207.779,253.195 182.93,250.109 182.544,250.033 195.2,245.711 		"/>
		
			<polyline fill-rule="evenodd" clip-rule="evenodd" fill="none" stroke="#FFFFFF" stroke-width="0.8" stroke-linecap="round" stroke-linejoin="round" stroke-miterlimit="10" points="
			293.44,247.098 294.29,238.84 286.572,250.188 293.44,247.098 		"/>
		
			<polyline fill-rule="evenodd" clip-rule="evenodd" fill="none" stroke="#FFFFFF" stroke-width="0.8" stroke-linecap="round" stroke-linejoin="round" stroke-miterlimit="10" points="
			165.102,244.708 169.115,247.098 173.36,252.271 163.25,248.103 165.102,244.708 		"/>
		
			<polyline fill-rule="evenodd" clip-rule="evenodd" fill="none" stroke="#FFFFFF" stroke-width="0.8" stroke-linecap="round" stroke-linejoin="round" stroke-miterlimit="10" points="
			182.544,250.033 182.93,250.109 199.752,254.66 177.526,251.961 177.295,251.883 182.544,250.033 		"/>
		
			<polyline fill-rule="evenodd" clip-rule="evenodd" fill="none" stroke="#FFFFFF" stroke-width="0.8" stroke-linecap="round" stroke-linejoin="round" stroke-miterlimit="10" points="
			286.572,250.188 280.322,228.966 275.846,254.508 286.496,250.263 286.572,250.188 		"/>
		
			<path fill-rule="evenodd" clip-rule="evenodd" fill="none" stroke="#FFFFFF" stroke-width="0.8" stroke-linecap="round" stroke-linejoin="round" stroke-miterlimit="10" d="
			M253.928,250.263l7.101,0.849l-9.878,3.396l-1.697-2.392L253.928,250.263 M192.731,257.981l7.484-3.241l12.349,5.789l-19.294-2.47
			h-0.154l-0.231-0.078H192.731"/>
		
			<polyline fill-rule="evenodd" clip-rule="evenodd" fill="none" stroke="#FFFFFF" stroke-width="0.8" stroke-linecap="round" stroke-linejoin="round" stroke-miterlimit="10" points="
			261.028,251.111 261.028,251.346 258.945,269.478 251.227,254.66 254.007,271.176 241.736,257.75 241.505,257.597 251.15,254.508 
			261.028,251.111 		"/>
		
			<polyline fill-rule="evenodd" clip-rule="evenodd" fill="none" stroke="#FFFFFF" stroke-width="0.8" stroke-linecap="round" stroke-linejoin="round" stroke-miterlimit="10" points="
			176.91,251.729 169.115,247.098 173.36,252.271 176.91,251.729 		"/>
		
			<polyline fill-rule="evenodd" clip-rule="evenodd" fill="none" stroke="#FFFFFF" stroke-width="0.8" stroke-linecap="round" stroke-linejoin="round" stroke-miterlimit="10" points="
			212.41,253.12 195.663,245.941 207.779,253.195 211.561,255.435 216.655,258.442 219.201,259.987 219.588,260.219 
			222.057,261.607 212.718,253.273 212.41,253.12 		"/>
		
			<polyline fill-rule="evenodd" clip-rule="evenodd" fill="none" stroke="#FFFFFF" stroke-width="0.8" stroke-linecap="round" stroke-linejoin="round" stroke-miterlimit="10" points="
			200.525,254.74 207.779,253.195 211.561,255.435 200.525,254.74 		"/>
		
			<polyline fill-rule="evenodd" clip-rule="evenodd" fill="none" stroke="#FFFFFF" stroke-width="0.8" stroke-linecap="round" stroke-linejoin="round" stroke-miterlimit="10" points="
			200.525,254.74 200.215,254.74 212.564,260.529 212.873,260.529 216.655,258.442 211.561,255.435 200.525,254.74 		"/>
		
			<polyline fill-rule="evenodd" clip-rule="evenodd" fill="none" stroke="#FFFFFF" stroke-width="0.8" stroke-linecap="round" stroke-linejoin="round" stroke-miterlimit="10" points="
			236.487,257.21 237.645,257.285 241.271,262.918 228.848,259.754 236.487,257.21 		"/>
		
			<polyline fill-rule="evenodd" clip-rule="evenodd" fill="none" stroke="#FFFFFF" stroke-width="0.8" stroke-linecap="round" stroke-linejoin="round" stroke-miterlimit="10" points="
			228.848,259.754 227.921,260.066 242.198,274.417 242.353,274.65 242.815,265.234 241.271,262.918 228.848,259.754 		"/>
		
			<polyline fill-rule="evenodd" clip-rule="evenodd" fill="none" stroke="#FFFFFF" stroke-width="0.8" stroke-linecap="round" stroke-linejoin="round" stroke-miterlimit="10" points="
			219.588,260.219 219.201,259.987 212.873,260.529 212.564,260.529 208.937,261.453 219.588,260.219 		"/>
		
			<polyline fill-rule="evenodd" clip-rule="evenodd" fill="none" stroke="#FFFFFF" stroke-width="0.8" stroke-linecap="round" stroke-linejoin="round" stroke-miterlimit="10" points="
			204.538,260.604 208.937,261.453 212.1,261.687 213.722,272.414 204.538,260.604 		"/>
		
			<polyline fill-rule="evenodd" clip-rule="evenodd" fill="none" stroke="#FFFFFF" stroke-width="0.8" stroke-linecap="round" stroke-linejoin="round" stroke-miterlimit="10" points="
			217.039,261.916 224.835,262.379 224.835,275.732 217.039,261.916 		"/>
		
			<polyline fill-rule="evenodd" clip-rule="evenodd" fill="none" stroke="#FFFFFF" stroke-width="0.8" stroke-linecap="round" stroke-linejoin="round" stroke-miterlimit="10" points="
			225.76,263.073 224.835,262.379 224.835,275.732 224.912,275.884 240.81,274.884 226.07,263.307 225.992,263.229 225.76,263.073 
					"/>
		
			<polyline fill-rule="evenodd" clip-rule="evenodd" fill="none" stroke="#FFFFFF" stroke-width="0.8" stroke-linecap="round" stroke-linejoin="round" stroke-miterlimit="10" points="
			263.498,267.783 261.028,251.346 258.945,269.478 263.498,267.783 		"/>
		
			<polyline fill-rule="evenodd" clip-rule="evenodd" fill="none" stroke="#FFFFFF" stroke-width="0.8" stroke-linecap="round" stroke-linejoin="round" stroke-miterlimit="10" points="
			258.945,269.478 251.227,254.66 254.007,271.176 258.945,269.478 		"/>
		
			<polyline fill-rule="evenodd" clip-rule="evenodd" fill="none" stroke="#FFFFFF" stroke-width="0.8" stroke-linecap="round" stroke-linejoin="round" stroke-miterlimit="10" points="
			246.288,270.327 241.736,257.75 254.007,271.176 250.996,271.023 246.52,270.715 246.288,270.327 		"/>
		
			<polyline fill-rule="evenodd" clip-rule="evenodd" fill="none" stroke="#FFFFFF" stroke-width="0.8" stroke-linecap="round" stroke-linejoin="round" stroke-miterlimit="10" points="
			242.815,265.234 246.288,270.327 246.52,270.715 250.996,271.023 242.353,274.65 242.815,265.234 		"/>
		
			<polyline fill-rule="evenodd" clip-rule="evenodd" fill="none" stroke="#FFFFFF" stroke-width="0.8" stroke-linecap="round" stroke-linejoin="round" stroke-miterlimit="10" points="
			242.198,274.417 226.07,263.307 240.81,274.884 242.353,274.65 242.198,274.417 		"/>
	</g>
	<g>
		<path fill="none" stroke="#FFFFFF" stroke-miterlimit="10" d="M141.034,316.201c0,11.517-9.057,20.574-20.754,20.574
			c-11.756,0-20.753-9.058-20.753-20.574s9.057-20.634,20.753-20.634C131.977,295.567,141.034,304.685,141.034,316.201z
			 M138.275,316.201c0-10.257-7.678-18.234-17.995-18.234c-10.317,0-17.995,7.978-17.995,18.234
			c0,10.197,7.678,18.175,17.995,18.175C130.598,334.376,138.275,326.398,138.275,316.201z"/>
		<path fill="none" stroke="#FFFFFF" stroke-miterlimit="10" d="M155.664,336.115v-40.008h7.917c3.539,0,9.717,0.539,14.756,5.578
			c4.259,4.259,5.758,10.077,5.758,14.456c0,4.378-1.5,10.137-5.758,14.396c-5.039,5.038-11.217,5.578-14.756,5.578H155.664z
			 M158.303,333.716h5.218c10.557,0,17.815-7.198,17.815-17.574c0-10.258-7.318-17.636-17.815-17.636h-5.218V333.716z"/>
		<path fill="none" stroke="#FFFFFF" stroke-miterlimit="10" d="M206.045,319.021l-13.136-22.913h2.999l11.517,20.214l11.756-20.214
			h2.999l-13.496,22.913v17.095h-2.639V319.021z"/>
		<path fill="none" stroke="#FFFFFF" stroke-miterlimit="10" d="M250.728,302.885c-2.459-4.798-6.778-4.918-7.857-4.918
			c-4.739,0-7.438,3.419-7.438,7.438c0,4.318,3,5.758,7.019,7.737c3.959,1.92,5.938,2.76,7.978,4.199
			c1.74,1.199,4.259,3.299,4.259,7.737c0,6.719-5.638,11.697-12.476,11.697c-5.159,0-7.799-2.46-9.298-4.199
			c-1.56-1.8-2.22-3.359-2.579-4.379l2.279-1.079c0.539,1.56,1.56,3.119,2.159,3.839c1.8,2.279,4.739,3.419,7.497,3.419
			c5.398,0,9.658-3.959,9.658-9.237c0-2.159-0.84-4.438-3.899-6.299c-1.14-0.659-3.479-1.859-6.778-3.479
			c-3.959-1.919-5.938-2.999-7.317-5.278c-0.899-1.5-1.26-2.999-1.26-4.559c0-4.619,3.119-9.957,10.257-9.957
			c4.02,0,7.678,1.919,9.717,5.698L250.728,302.885z"/>
		<path fill="none" stroke="#FFFFFF" stroke-miterlimit="10" d="M285.693,302.885c-2.459-4.798-6.777-4.918-7.857-4.918
			c-4.738,0-7.438,3.419-7.438,7.438c0,4.318,2.999,5.758,7.018,7.737c3.959,1.92,5.939,2.76,7.979,4.199
			c1.739,1.199,4.258,3.299,4.258,7.737c0,6.719-5.638,11.697-12.476,11.697c-5.159,0-7.798-2.46-9.298-4.199
			c-1.559-1.8-2.219-3.359-2.578-4.379l2.279-1.079c0.539,1.56,1.559,3.119,2.158,3.839c1.8,2.279,4.739,3.419,7.498,3.419
			c5.398,0,9.657-3.959,9.657-9.237c0-2.159-0.84-4.438-3.899-6.299c-1.139-0.659-3.479-1.859-6.777-3.479
			c-3.959-1.919-5.938-2.999-7.318-5.278c-0.898-1.5-1.26-2.999-1.26-4.559c0-4.619,3.119-9.957,10.258-9.957
			c4.019,0,7.678,1.919,9.717,5.698L285.693,302.885z"/>
		<path fill="none" stroke="#FFFFFF" stroke-miterlimit="10" d="M323.479,298.506h-16.555v14.517h16.195v2.398h-16.195v18.295
			h16.555v2.399h-19.194v-40.008h19.194V298.506z"/>
		<path fill="none" stroke="#FFFFFF" stroke-miterlimit="10" d="M346.688,319.021l-13.136-22.913h2.999l11.517,20.214l11.757-20.214
			h2.999l-13.496,22.913v17.095h-2.64V319.021z"/>
	</g>
	<g>
		<path fill="none" stroke="#FFFFFF" stroke-miterlimit="10" d="M109.523,357.09h-5.287l-1.657,4.077h-0.894l5.231-12.789
			l5.157,12.789h-0.894L109.523,357.09z M109.226,356.346l-2.327-5.883l-2.364,5.883H109.226z"/>
		<path fill="none" stroke="#FFFFFF" stroke-miterlimit="10" d="M136.057,348.75l3.648,10.574l3.537-10.574h0.894l-4.431,12.92
			l-4.542-12.92H136.057z"/>
		<path fill="none" stroke="#FFFFFF" stroke-miterlimit="10" d="M160.399,361.167l-4.021-5.864h-0.372v5.864h-0.819V348.75h1.787
			c0.95,0,1.806,0.075,2.625,0.633c0.968,0.671,1.284,1.694,1.284,2.662c0,1.229-0.54,2.495-2.085,3.016
			c-0.651,0.224-1.247,0.242-1.526,0.242l4.059,5.864H160.399z M156.006,354.559h1.191c1.769,0,2.83-0.931,2.83-2.532
			c0-1.247-0.614-1.898-1.099-2.159c-0.521-0.298-1.415-0.372-1.898-0.372h-1.024V354.559z"/>
		<path fill="none" stroke="#FFFFFF" stroke-miterlimit="10" d="M192.424,349.495h-5.138V354h5.026v0.744h-5.026v5.678h5.138v0.745
			h-5.957V348.75h5.957V349.495z"/>
		<path fill="none" stroke="#FFFFFF" stroke-miterlimit="10" d="M206.379,354.838l-3.258-6.088h0.894l2.811,5.306l2.83-5.306h0.894
			l-3.239,6.088l3.407,6.329h-0.894l-2.997-5.585l-2.96,5.585h-0.894L206.379,354.838z"/>
		<path fill="none" stroke="#FFFFFF" stroke-miterlimit="10" d="M222.902,355.266v5.901h-0.818V348.75h2.4
			c2.029,0,3.631,1.117,3.631,3.239c0,2.066-1.471,3.276-3.611,3.276H222.902z M222.902,354.521h1.639
			c1.619,0,2.718-0.949,2.718-2.514c0-1.545-1.042-2.513-2.849-2.513h-1.508V354.521z"/>
		<path fill="none" stroke="#FFFFFF" stroke-miterlimit="10" d="M245.459,349.495h-5.139V354h5.026v0.744h-5.026v5.678h5.139v0.745
			h-5.957V348.75h5.957V349.495z"/>
		<path fill="none" stroke="#FFFFFF" stroke-miterlimit="10" d="M262.467,361.167l-4.021-5.864h-0.372v5.864h-0.819V348.75h1.787
			c0.949,0,1.806,0.075,2.625,0.633c0.968,0.671,1.284,1.694,1.284,2.662c0,1.229-0.54,2.495-2.085,3.016
			c-0.651,0.224-1.247,0.242-1.526,0.242l4.059,5.864H262.467z M258.073,354.559h1.191c1.769,0,2.829-0.931,2.829-2.532
			c0-1.247-0.613-1.898-1.098-2.159c-0.521-0.298-1.415-0.372-1.898-0.372h-1.024V354.559z"/>
		<path fill="none" stroke="#FFFFFF" stroke-miterlimit="10" d="M275.9,348.75v12.417h-0.82V348.75H275.9z"/>
		<path fill="none" stroke="#FFFFFF" stroke-miterlimit="10" d="M294.324,349.495h-5.138V354h5.026v0.744h-5.026v5.678h5.138v0.745
			h-5.957V348.75h5.957V349.495z"/>
		<path fill="none" stroke="#FFFFFF" stroke-miterlimit="10" d="M306.119,361.167V348.62l10.426,10.909V348.75h0.818v12.733
			l-10.424-10.909v10.593H306.119z"/>
		<path fill="none" stroke="#FFFFFF" stroke-miterlimit="10" d="M339.768,351.282c-1.061-1.247-2.587-1.955-4.188-1.955
			c-3.184,0-5.566,2.551-5.566,5.696c0,3.687,3.071,5.604,5.584,5.604c1.248,0,2.904-0.502,4.17-1.88v1.079
			c-1.266,1.117-2.792,1.546-4.133,1.546c-3.723,0-6.478-2.923-6.478-6.386c0-3.574,2.866-6.403,6.44-6.403
			c2.365,0,3.798,1.266,4.17,1.619V351.282z"/>
		<path fill="none" stroke="#FFFFFF" stroke-miterlimit="10" d="M357.52,349.495h-5.139V354h5.026v0.744h-5.026v5.678h5.139v0.745
			h-5.957V348.75h5.957V349.495z"/>
	</g>
	<line fill="none" stroke="#FFFFFF" stroke-miterlimit="10" x1="89" y1="341.5" x2="373" y2="341.5"/>
</g>
</svg>
